<svg width="204" height="52" viewBox="0 0 204 52" fill="none" xmlns="http://www.w3.org/2000/svg">
<path d="M203 45.988C203 48.757 200.387 51 197.154 51H5.85328C2.62246 51 0 48.757 0 45.988V6.01858C0 3.25084 2.62246 1 5.85328 1H197.153C200.387 1 202.998 3.25084 202.998 6.01858L203 45.988Z" fill="white"/>
<path d="M196.444 1.04162C199.943 1.04162 202.789 3.4905 202.789 6.5V45.5C202.789 48.5095 199.943 50.9584 196.444 50.9584H7.55556C4.05733 50.9584 1.21078 48.5095 1.21078 45.5V6.5C1.21078 3.4905 4.05733 1.04162 7.55556 1.04162H196.444ZM196.444 -1.976e-06H7.55556C3.40189 -1.976e-06 0 2.92662 0 6.5V45.5C0 49.0734 3.40189 52 7.55556 52H196.444C200.598 52 204 49.0734 204 45.5V6.5C204 2.92662 200.598 -1.976e-06 196.444 -1.976e-06Z" fill="#A6A6A6"/>
<path d="M51.1705 25.7191C51.1318 21.5292 54.6891 19.4908 54.8518 19.3959C52.8371 16.532 49.7145 16.1407 48.6171 16.1095C45.9945 15.8404 43.4505 17.6396 42.1145 17.6396C40.7518 17.6396 38.6945 16.1355 36.4771 16.1797C33.6238 16.2226 30.9545 17.8333 29.4905 20.3345C26.4691 25.4344 28.7225 32.9289 31.6171 37.0512C33.0651 39.0701 34.7571 41.3243 36.9718 41.245C39.1385 41.1579 39.9478 39.8982 42.5625 39.8982C45.1531 39.8982 45.9131 41.245 48.1718 41.1943C50.4971 41.1579 51.9611 39.1663 53.3585 37.1292C55.0318 34.8152 55.7038 32.5363 55.7305 32.4193C55.6758 32.4011 51.2145 30.741 51.1705 25.7191Z" fill="black"/>
<path d="M46.9038 13.3977C48.0691 11.9768 48.8665 10.0437 48.6451 8.08203C46.9585 8.15483 44.8491 9.21953 43.6345 10.6092C42.5598 11.8338 41.5998 13.841 41.8478 15.7286C43.7425 15.8664 45.6878 14.7965 46.9038 13.3977Z" fill="black"/>
<path d="M76.3997 13.0118C76.3997 14.5419 75.9291 15.6937 74.989 16.4672C74.1184 17.1809 72.881 17.5384 71.2784 17.5384C70.4837 17.5384 69.8037 17.5046 69.2344 17.437V9.0767C69.977 8.9597 70.777 8.8999 71.641 8.8999C73.1677 8.8999 74.3184 9.2236 75.0944 9.871C75.9637 10.6029 76.3997 11.6494 76.3997 13.0118ZM74.9264 13.0495C74.9264 12.0576 74.657 11.2971 74.1184 10.7667C73.5797 10.2376 72.793 9.9724 71.757 9.9724C71.317 9.9724 70.9424 10.001 70.6317 10.0608V16.4165C70.8037 16.4425 71.1184 16.4542 71.5757 16.4542C72.645 16.4542 73.4704 16.1643 74.0517 15.5845C74.6331 15.0047 74.9264 14.1597 74.9264 13.0495Z" fill="black"/>
<path d="M84.2117 14.3482C84.2117 15.2907 83.9357 16.0629 83.3837 16.6687C82.805 17.2914 82.0383 17.6021 81.081 17.6021C80.1583 17.6021 79.4237 17.3044 78.8757 16.7064C78.329 16.1097 78.0557 15.357 78.0557 14.4496C78.0557 13.5006 78.337 12.7219 78.9023 12.1174C79.4677 11.5129 80.2277 11.21 81.185 11.21C82.1077 11.21 82.849 11.5077 83.4103 12.1044C83.9437 12.6842 84.2117 13.433 84.2117 14.3482ZM82.7623 14.3924C82.7623 13.8269 82.637 13.342 82.3877 12.9377C82.0943 12.4489 81.677 12.2045 81.1343 12.2045C80.573 12.2045 80.1463 12.4489 79.853 12.9377C79.6023 13.342 79.4783 13.8347 79.4783 14.4171C79.4783 14.9826 79.6037 15.4675 79.853 15.8718C80.1557 16.3606 80.577 16.605 81.121 16.605C81.6543 16.605 82.073 16.3567 82.3743 15.8588C82.633 15.4467 82.7623 14.9579 82.7623 14.3924Z" fill="black"/>
<path d="M94.6867 11.335L92.7201 17.4632H91.4401L90.6254 14.8021C90.4187 14.1378 90.2507 13.4774 90.1201 12.8222H90.0947C89.9734 13.4956 89.8054 14.1547 89.5894 14.8021L88.7241 17.4632H87.4294L85.5801 11.335H87.0161L87.7267 14.2483C87.8987 14.9373 88.0401 15.5938 88.1534 16.2152H88.1787C88.2827 15.703 88.4547 15.0504 88.6974 14.2613L89.5894 11.3363H90.7281L91.5827 14.1989C91.7894 14.897 91.9574 15.5691 92.0867 16.2165H92.1254C92.2201 15.586 92.3627 14.9139 92.5521 14.1989L93.3147 11.3363H94.6867V11.335Z" fill="black"/>
<path d="M101.93 17.463H100.533V13.953C100.533 12.8714 100.112 12.3306 99.2662 12.3306C98.8516 12.3306 98.5169 12.4788 98.2569 12.7765C97.9996 13.0742 97.8689 13.4252 97.8689 13.8269V17.4617H96.4716V13.0859C96.4716 12.5477 96.4542 11.964 96.4209 11.3322H97.6489L97.7142 12.2903H97.7529C97.9156 11.9926 98.1582 11.7469 98.4769 11.5506C98.8556 11.3218 99.2796 11.2061 99.7436 11.2061C100.33 11.2061 100.818 11.3907 101.206 11.7612C101.689 12.2149 101.93 12.8922 101.93 13.7918V17.463Z" fill="black"/>
<path d="M105.784 17.463H104.388V8.52295H105.784V17.463Z" fill="black"/>
<path d="M114.01 14.3482C114.01 15.2907 113.734 16.0629 113.182 16.6687C112.604 17.2914 111.836 17.6021 110.88 17.6021C109.956 17.6021 109.221 17.3044 108.674 16.7064C108.128 16.1097 107.854 15.357 107.854 14.4496C107.854 13.5006 108.136 12.7219 108.701 12.1174C109.266 11.5129 110.026 11.21 110.982 11.21C111.906 11.21 112.646 11.5077 113.209 12.1044C113.742 12.6842 114.01 13.433 114.01 14.3482ZM112.56 14.3924C112.56 13.8269 112.434 13.342 112.185 12.9377C111.893 12.4489 111.474 12.2045 110.933 12.2045C110.37 12.2045 109.944 12.4489 109.652 12.9377C109.401 13.342 109.277 13.8347 109.277 14.4171C109.277 14.9826 109.402 15.4675 109.652 15.8718C109.954 16.3606 110.376 16.605 110.92 16.605C111.453 16.605 111.87 16.3567 112.172 15.8588C112.432 15.4467 112.56 14.9579 112.56 14.3924Z" fill="black"/>
<path d="M120.773 17.463H119.519L119.415 16.7571H119.376C118.947 17.32 118.335 17.6021 117.54 17.6021C116.947 17.6021 116.467 17.4162 116.105 17.047C115.777 16.7116 115.613 16.2943 115.613 15.799C115.613 15.0502 115.933 14.4795 116.577 14.0843C117.22 13.6891 118.124 13.4954 119.288 13.5045V13.3901C119.288 12.5828 118.853 12.1798 117.983 12.1798C117.363 12.1798 116.816 12.3319 116.344 12.6335L116.06 11.7391C116.644 11.3868 117.365 11.21 118.216 11.21C119.859 11.21 120.683 12.055 120.683 13.745V16.0018C120.683 16.6141 120.713 17.1016 120.773 17.463ZM119.323 15.357V14.4119C117.781 14.3859 117.011 14.798 117.011 15.6469C117.011 15.9667 117.099 16.2059 117.279 16.3658C117.459 16.5257 117.688 16.605 117.961 16.605C118.268 16.605 118.555 16.5101 118.816 16.3216C119.079 16.1318 119.24 15.8913 119.3 15.5962C119.315 15.5299 119.323 15.4493 119.323 15.357Z" fill="black"/>
<path d="M128.713 17.463H127.473L127.408 16.4789H127.369C126.973 17.2277 126.298 17.6021 125.35 17.6021C124.593 17.6021 123.962 17.3123 123.462 16.7324C122.962 16.1526 122.713 15.3999 122.713 14.4756C122.713 13.4837 122.984 12.6803 123.528 12.0667C124.054 11.4947 124.7 11.2087 125.468 11.2087C126.312 11.2087 126.902 11.4856 127.238 12.0407H127.265V8.52295H128.664V15.812C128.664 16.4087 128.68 16.9586 128.713 17.463ZM127.265 14.8786V13.8568C127.265 13.68 127.252 13.537 127.226 13.4278C127.148 13.1002 126.978 12.8246 126.721 12.6023C126.461 12.38 126.148 12.2682 125.786 12.2682C125.265 12.2682 124.857 12.4697 124.557 12.874C124.26 13.2783 124.109 13.7944 124.109 14.4249C124.109 15.0307 124.252 15.5221 124.538 15.9004C124.841 16.3034 125.249 16.5049 125.76 16.5049C126.218 16.5049 126.585 16.3372 126.864 16.0005C127.133 15.6898 127.265 15.3154 127.265 14.8786Z" fill="black"/>
<path d="M140.664 14.3482C140.664 15.2907 140.388 16.0629 139.836 16.6687C139.257 17.2914 138.492 17.6021 137.533 17.6021C136.612 17.6021 135.877 17.3044 135.328 16.7064C134.781 16.1097 134.508 15.357 134.508 14.4496C134.508 13.5006 134.789 12.7219 135.354 12.1174C135.92 11.5129 136.68 11.21 137.638 11.21C138.56 11.21 139.302 11.5077 139.862 12.1044C140.396 12.6842 140.664 13.433 140.664 14.3482ZM139.216 14.3924C139.216 13.8269 139.09 13.342 138.841 12.9377C138.546 12.4489 138.13 12.2045 137.586 12.2045C137.026 12.2045 136.6 12.4489 136.305 12.9377C136.054 13.342 135.93 13.8347 135.93 14.4171C135.93 14.9826 136.056 15.4675 136.305 15.8718C136.608 16.3606 137.029 16.605 137.573 16.605C138.106 16.605 138.526 16.3567 138.828 15.8588C139.085 15.4467 139.216 14.9579 139.216 14.3924Z" fill="black"/>
<path d="M148.177 17.463H146.781V13.953C146.781 12.8714 146.36 12.3306 145.513 12.3306C145.098 12.3306 144.764 12.4788 144.505 12.7765C144.246 13.0742 144.117 13.4252 144.117 13.8269V17.4617H142.718V13.0859C142.718 12.5477 142.702 11.964 142.669 11.3322H143.896L143.961 12.2903H144C144.164 11.9926 144.406 11.7469 144.724 11.5506C145.104 11.3218 145.526 11.2061 145.992 11.2061C146.577 11.2061 147.065 11.3907 147.453 11.7612C147.937 12.2149 148.177 12.8922 148.177 13.7918V17.463Z" fill="black"/>
<path d="M157.581 12.3553H156.042V15.3323C156.042 16.0889 156.316 16.4672 156.857 16.4672C157.108 16.4672 157.316 16.4464 157.48 16.4035L157.516 17.437C157.24 17.5384 156.877 17.5891 156.43 17.5891C155.878 17.5891 155.449 17.4253 155.138 17.0977C154.826 16.7701 154.672 16.2189 154.672 15.4454V12.3553H153.753V11.3348H154.672V10.2116L156.041 9.80859V11.3335H157.58V12.3553H157.581Z" fill="black"/>
<path d="M164.978 17.463H163.58V13.979C163.58 12.8805 163.158 12.3306 162.314 12.3306C161.666 12.3306 161.224 12.6491 160.981 13.2861C160.94 13.42 160.916 13.5838 160.916 13.7762V17.4618H159.52V8.52295H160.916V12.2162H160.942C161.382 11.5441 162.013 11.2087 162.83 11.2087C163.409 11.2087 163.888 11.3933 164.268 11.7638C164.741 12.2253 164.978 12.9117 164.978 13.8191V17.463Z" fill="black"/>
<path d="M172.609 14.1089C172.609 14.3533 172.591 14.5587 172.557 14.7264H168.367C168.385 15.3322 168.585 15.7937 168.973 16.1135C169.328 16.3995 169.785 16.5425 170.345 16.5425C170.965 16.5425 171.531 16.4463 172.04 16.2526L172.259 17.199C171.663 17.4512 170.961 17.5773 170.149 17.5773C169.176 17.5773 168.409 17.2978 167.855 16.7388C167.297 16.1798 167.021 15.4297 167.021 14.4885C167.021 13.5642 167.279 12.7946 167.797 12.181C168.339 11.5258 169.071 11.1982 169.995 11.1982C170.899 11.1982 171.585 11.5258 172.049 12.181C172.424 12.701 172.609 13.3445 172.609 14.1089ZM171.276 13.7566C171.287 13.3523 171.195 13.0039 171.005 12.7101C170.763 12.3318 170.393 12.142 169.893 12.142C169.437 12.142 169.065 12.3266 168.781 12.6971C168.549 12.9922 168.412 13.3445 168.367 13.7566H171.276Z" fill="black"/>
<path d="M82.5269 40.9552H79.4989L77.8402 35.8735H72.0749L70.4949 40.9552H67.5469L73.2589 23.6548H76.7869L82.5269 40.9552ZM77.3402 33.7415L75.8402 29.224C75.6815 28.7625 75.3842 27.6757 74.9455 25.9649H74.8922C74.7175 26.7007 74.4362 27.7875 74.0495 29.224L72.5762 33.7415H77.3402Z" fill="black"/>
<path d="M97.2159 34.5647C97.2159 36.6863 96.6279 38.3633 95.4519 39.5944C94.3985 40.6903 93.0905 41.2376 91.5292 41.2376C89.8439 41.2376 88.6332 40.6474 87.8959 39.467H87.8425V46.0385H84.9999V32.5874C84.9999 31.2536 84.9639 29.8847 84.8945 28.4807H87.3945L87.5532 30.458H87.6065C88.5545 28.9682 89.9932 28.2246 91.9239 28.2246C93.4332 28.2246 94.6932 28.8057 95.7012 29.9692C96.7119 31.134 97.2159 32.6654 97.2159 34.5647ZM94.3199 34.6661C94.3199 33.4519 94.0399 32.4509 93.4772 31.6631C92.8625 30.8415 92.0372 30.4307 91.0025 30.4307C90.3012 30.4307 89.6639 30.6595 89.0945 31.1106C88.5239 31.5656 88.1505 32.1597 87.9759 32.8955C87.8879 33.2387 87.8439 33.5195 87.8439 33.7405V35.8205C87.8439 36.7279 88.1292 37.4936 88.6999 38.1189C89.2705 38.7442 90.0119 39.0562 90.9239 39.0562C91.9945 39.0562 92.8279 38.6532 93.4239 37.8498C94.0212 37.0451 94.3199 35.9843 94.3199 34.6661Z" fill="black"/>
<path d="M111.932 34.5647C111.932 36.6863 111.344 38.3633 110.167 39.5944C109.115 40.6903 107.807 41.2376 106.246 41.2376C104.56 41.2376 103.35 40.6474 102.614 39.467H102.56V46.0385H99.7176V32.5874C99.7176 31.2536 99.6816 29.8847 99.6123 28.4807H102.112L102.271 30.458H102.324C103.271 28.9682 104.71 28.2246 106.642 28.2246C108.15 28.2246 109.41 28.8057 110.42 29.9692C111.427 31.134 111.932 32.6654 111.932 34.5647ZM109.036 34.6661C109.036 33.4519 108.755 32.4509 108.192 31.6631C107.578 30.8415 106.755 30.4307 105.719 30.4307C105.016 30.4307 104.38 30.6595 103.81 31.1106C103.239 31.5656 102.867 32.1597 102.692 32.8955C102.606 33.2387 102.56 33.5195 102.56 33.7405V35.8205C102.56 36.7279 102.846 37.4936 103.414 38.1189C103.984 38.7429 104.726 39.0562 105.64 39.0562C106.711 39.0562 107.544 38.6532 108.14 37.8498C108.738 37.0451 109.036 35.9843 109.036 34.6661Z" fill="black"/>
<path d="M128.386 36.1037C128.386 37.5753 127.862 38.7726 126.81 39.6969C125.654 40.707 124.045 41.2114 121.977 41.2114C120.067 41.2114 118.537 40.8526 117.378 40.1337L118.037 37.8236C119.285 38.5594 120.654 38.9286 122.146 38.9286C123.217 38.9286 124.05 38.692 124.649 38.2214C125.245 37.7508 125.542 37.119 125.542 36.3312C125.542 35.6292 125.297 35.0377 124.805 34.558C124.315 34.0783 123.498 33.6324 122.357 33.2203C119.25 32.0906 117.698 30.4357 117.698 28.2595C117.698 26.8373 118.242 25.6712 119.331 24.7638C120.417 23.8551 121.865 23.4014 123.675 23.4014C125.29 23.4014 126.631 23.6757 127.702 24.223L126.991 26.4824C125.991 25.952 124.861 25.6868 123.595 25.6868C122.595 25.6868 121.814 25.9273 121.254 26.4057C120.781 26.8334 120.543 27.3547 120.543 27.9722C120.543 28.656 120.814 29.2215 121.358 29.6661C121.831 30.0769 122.691 30.5215 123.939 31.0012C125.466 31.6005 126.587 32.3012 127.309 33.1046C128.027 33.9054 128.386 34.9077 128.386 36.1037Z" fill="black"/>
<path d="M137.784 30.5604H134.651V36.6171C134.651 38.1576 135.203 38.9272 136.31 38.9272C136.818 38.9272 137.239 38.8843 137.572 38.7985L137.651 40.9032C137.091 41.1073 136.354 41.21 135.44 41.21C134.318 41.21 133.44 40.8759 132.807 40.209C132.176 39.5408 131.859 38.4202 131.859 36.8459V30.5578H129.992V28.4778H131.859V26.1937L134.651 25.3721V28.4778H137.784V30.5604Z" fill="black"/>
<path d="M151.922 34.6151C151.922 36.5326 151.359 38.1069 150.236 39.338C149.059 40.6055 147.496 41.2373 145.548 41.2373C143.671 41.2373 142.176 40.6302 141.062 39.416C139.947 38.2018 139.39 36.6691 139.39 34.8218C139.39 32.8887 139.963 31.3053 141.114 30.0742C142.262 28.8418 143.811 28.2256 145.759 28.2256C147.636 28.2256 149.147 28.8327 150.287 30.0482C151.378 31.2273 151.922 32.7496 151.922 34.6151ZM148.972 34.7048C148.972 33.5543 148.72 32.5676 148.21 31.7447C147.614 30.7489 146.762 30.2523 145.658 30.2523C144.515 30.2523 143.647 30.7502 143.051 31.7447C142.54 32.5689 142.288 33.5712 142.288 34.7568C142.288 35.9073 142.54 36.894 143.051 37.7156C143.666 38.7114 144.524 39.208 145.632 39.208C146.718 39.208 147.57 38.701 148.184 37.6896C148.708 36.8511 148.972 35.854 148.972 34.7048Z" fill="black"/>
<path d="M161.162 30.9182C160.88 30.8675 160.58 30.8415 160.266 30.8415C159.266 30.8415 158.492 31.2094 157.948 31.9465C157.475 32.5965 157.238 33.4181 157.238 34.41V40.9555H154.396L154.423 32.4093C154.423 30.9715 154.387 29.6624 154.316 28.482H156.792L156.896 30.8688H156.975C157.275 30.0485 157.748 29.3881 158.396 28.8928C159.03 28.4469 159.714 28.2246 160.451 28.2246C160.714 28.2246 160.951 28.2428 161.162 28.2753V30.9182Z" fill="black"/>
<path d="M173.875 34.1279C173.875 34.6245 173.841 35.0431 173.771 35.385H165.243C165.276 36.6174 165.688 37.5599 166.48 38.2099C167.199 38.791 168.128 39.0822 169.269 39.0822C170.532 39.0822 171.684 38.8859 172.72 38.492L173.165 40.416C171.955 40.9308 170.525 41.1869 168.876 41.1869C166.892 41.1869 165.335 40.6175 164.201 39.48C163.071 38.3425 162.504 36.815 162.504 34.8988C162.504 33.0177 163.031 31.4512 164.085 30.2019C165.189 28.8681 166.681 28.2012 168.559 28.2012C170.403 28.2012 171.799 28.8681 172.747 30.2019C173.497 31.2614 173.875 32.5718 173.875 34.1279ZM171.164 33.409C171.183 32.5874 170.997 31.8776 170.612 31.2783C170.12 30.5074 169.364 30.1226 168.347 30.1226C167.417 30.1226 166.661 30.4983 166.084 31.2523C165.611 31.8516 165.329 32.5705 165.243 33.4077H171.164V33.409Z" fill="black"/>
</svg>
