<svg width="205" height="52" viewBox="0 0 205 52" fill="none" xmlns="http://www.w3.org/2000/svg">
<path d="M205 45.988C205 48.757 202.374 51 199.126 51H6.88211C3.63538 51 1 48.757 1 45.988V6.01858C1 3.25084 3.63538 1 6.88211 1H199.124C202.374 1 204.998 3.25084 204.998 6.01858L205 45.988Z" fill="black"/>
<path d="M197.407 1.04162C200.923 1.04162 203.783 3.4905 203.783 6.5V45.5C203.783 48.5095 200.923 50.9584 197.407 50.9584H7.59259C4.07722 50.9584 1.21671 48.5095 1.21671 45.5V6.5C1.21671 3.4905 4.07722 1.04162 7.59259 1.04162H197.407ZM197.407 -1.976e-06H7.59259C3.41856 -1.976e-06 0 2.92662 0 6.5V45.5C0 49.0734 3.41856 52 7.59259 52H197.407C201.581 52 205 49.0734 205 45.5V6.5C205 2.92662 201.581 -1.976e-06 197.407 -1.976e-06Z" fill="#A6A6A6"/>
<path d="M53.1705 25.7191C53.1318 21.5292 56.6891 19.4908 56.8518 19.3959C54.8371 16.532 51.7145 16.1407 50.6171 16.1095C47.9945 15.8404 45.4505 17.6396 44.1145 17.6396C42.7518 17.6396 40.6945 16.1355 38.4771 16.1797C35.6238 16.2226 32.9545 17.8333 31.4905 20.3345C28.4691 25.4344 30.7225 32.9289 33.6171 37.0512C35.0651 39.0701 36.7571 41.3243 38.9718 41.245C41.1385 41.1579 41.9478 39.8982 44.5625 39.8982C47.1531 39.8982 47.9131 41.245 50.1718 41.1943C52.4971 41.1579 53.9611 39.1663 55.3585 37.1292C57.0318 34.8152 57.7038 32.5363 57.7305 32.4193C57.6758 32.4011 53.2145 30.741 53.1705 25.7191Z" fill="white"/>
<path d="M48.9038 13.3977C50.0691 11.9768 50.8665 10.0437 50.6451 8.08203C48.9585 8.15483 46.8491 9.21953 45.6345 10.6092C44.5598 11.8338 43.5998 13.841 43.8478 15.7286C45.7425 15.8664 47.6878 14.7965 48.9038 13.3977Z" fill="white"/>
<path d="M84.5269 40.9552H81.4989L79.8402 35.8735H74.0749L72.4949 40.9552H69.5469L75.2589 23.6548H78.7869L84.5269 40.9552ZM79.3402 33.7415L77.8402 29.224C77.6815 28.7625 77.3842 27.6757 76.9455 25.9649H76.8922C76.7175 26.7007 76.4362 27.7875 76.0495 29.224L74.5762 33.7415H79.3402Z" fill="white"/>
<path d="M99.2159 34.5647C99.2159 36.6863 98.6279 38.3633 97.4519 39.5944C96.3985 40.6903 95.0905 41.2376 93.5292 41.2376C91.8439 41.2376 90.6332 40.6474 89.8959 39.467H89.8425V46.0385H86.9999V32.5874C86.9999 31.2536 86.9639 29.8847 86.8945 28.4807H89.3945L89.5532 30.458H89.6065C90.5545 28.9682 91.9932 28.2246 93.9239 28.2246C95.4332 28.2246 96.6932 28.8057 97.7012 29.9692C98.7119 31.134 99.2159 32.6654 99.2159 34.5647ZM96.3199 34.6661C96.3199 33.4519 96.0399 32.4509 95.4772 31.6631C94.8625 30.8415 94.0372 30.4307 93.0025 30.4307C92.3012 30.4307 91.6639 30.6595 91.0945 31.1106C90.5239 31.5656 90.1505 32.1597 89.9759 32.8955C89.8879 33.2387 89.8439 33.5195 89.8439 33.7405V35.8205C89.8439 36.7279 90.1292 37.4936 90.6999 38.1189C91.2705 38.7442 92.0119 39.0562 92.9239 39.0562C93.9945 39.0562 94.8279 38.6532 95.4239 37.8498C96.0212 37.0451 96.3199 35.9843 96.3199 34.6661Z" fill="white"/>
<path d="M113.932 34.5647C113.932 36.6863 113.344 38.3633 112.167 39.5944C111.115 40.6903 109.807 41.2376 108.246 41.2376C106.56 41.2376 105.35 40.6474 104.614 39.467H104.56V46.0385H101.718V32.5874C101.718 31.2536 101.682 29.8847 101.612 28.4807H104.112L104.271 30.458H104.324C105.271 28.9682 106.71 28.2246 108.642 28.2246C110.15 28.2246 111.41 28.8057 112.42 29.9692C113.427 31.134 113.932 32.6654 113.932 34.5647ZM111.036 34.6661C111.036 33.4519 110.755 32.4509 110.192 31.6631C109.578 30.8415 108.755 30.4307 107.719 30.4307C107.016 30.4307 106.38 30.6595 105.81 31.1106C105.239 31.5656 104.867 32.1597 104.692 32.8955C104.606 33.2387 104.56 33.5195 104.56 33.7405V35.8205C104.56 36.7279 104.846 37.4936 105.414 38.1189C105.984 38.7429 106.726 39.0562 107.64 39.0562C108.711 39.0562 109.544 38.6532 110.14 37.8498C110.738 37.0451 111.036 35.9843 111.036 34.6661Z" fill="white"/>
<path d="M130.386 36.1037C130.386 37.5753 129.862 38.7726 128.81 39.6969C127.654 40.707 126.045 41.2114 123.977 41.2114C122.067 41.2114 120.537 40.8526 119.378 40.1337L120.037 37.8236C121.285 38.5594 122.654 38.9286 124.146 38.9286C125.217 38.9286 126.05 38.692 126.649 38.2214C127.245 37.7508 127.542 37.119 127.542 36.3312C127.542 35.6292 127.297 35.0377 126.805 34.558C126.315 34.0783 125.498 33.6324 124.357 33.2203C121.25 32.0906 119.698 30.4357 119.698 28.2595C119.698 26.8373 120.242 25.6712 121.331 24.7638C122.417 23.8551 123.865 23.4014 125.675 23.4014C127.29 23.4014 128.631 23.6757 129.702 24.223L128.991 26.4824C127.991 25.952 126.861 25.6868 125.595 25.6868C124.595 25.6868 123.814 25.9273 123.254 26.4057C122.781 26.8334 122.543 27.3547 122.543 27.9722C122.543 28.656 122.814 29.2215 123.358 29.6661C123.831 30.0769 124.691 30.5215 125.939 31.0012C127.466 31.6005 128.587 32.3012 129.309 33.1046C130.027 33.9054 130.386 34.9077 130.386 36.1037Z" fill="white"/>
<path d="M139.784 30.5604H136.651V36.6171C136.651 38.1576 137.203 38.9272 138.31 38.9272C138.818 38.9272 139.239 38.8843 139.572 38.7985L139.651 40.9032C139.091 41.1073 138.354 41.21 137.44 41.21C136.318 41.21 135.44 40.8759 134.807 40.209C134.176 39.5408 133.859 38.4202 133.859 36.8459V30.5578H131.992V28.4778H133.859V26.1937L136.651 25.3721V28.4778H139.784V30.5604Z" fill="white"/>
<path d="M153.922 34.6151C153.922 36.5326 153.359 38.1069 152.236 39.338C151.059 40.6055 149.496 41.2373 147.548 41.2373C145.671 41.2373 144.176 40.6302 143.062 39.416C141.947 38.2018 141.39 36.6691 141.39 34.8218C141.39 32.8887 141.963 31.3053 143.114 30.0742C144.262 28.8418 145.811 28.2256 147.759 28.2256C149.636 28.2256 151.147 28.8327 152.287 30.0482C153.378 31.2273 153.922 32.7496 153.922 34.6151ZM150.972 34.7048C150.972 33.5543 150.72 32.5676 150.21 31.7447C149.614 30.7489 148.762 30.2523 147.658 30.2523C146.515 30.2523 145.647 30.7502 145.051 31.7447C144.54 32.5689 144.288 33.5712 144.288 34.7568C144.288 35.9073 144.54 36.894 145.051 37.7156C145.666 38.7114 146.524 39.208 147.632 39.208C148.718 39.208 149.57 38.701 150.184 37.6896C150.708 36.8511 150.972 35.854 150.972 34.7048Z" fill="white"/>
<path d="M163.162 30.9182C162.88 30.8675 162.58 30.8415 162.266 30.8415C161.266 30.8415 160.492 31.2094 159.948 31.9465C159.475 32.5965 159.238 33.4181 159.238 34.41V40.9555H156.396L156.423 32.4093C156.423 30.9715 156.387 29.6624 156.316 28.482H158.792L158.896 30.8688H158.975C159.275 30.0485 159.748 29.3881 160.396 28.8928C161.03 28.4469 161.714 28.2246 162.451 28.2246C162.714 28.2246 162.951 28.2428 163.162 28.2753V30.9182Z" fill="white"/>
<path d="M175.875 34.1279C175.875 34.6245 175.841 35.0431 175.771 35.385H167.243C167.276 36.6174 167.688 37.5599 168.48 38.2099C169.199 38.791 170.128 39.0822 171.269 39.0822C172.532 39.0822 173.684 38.8859 174.72 38.492L175.165 40.416C173.955 40.9308 172.525 41.1869 170.876 41.1869C168.892 41.1869 167.335 40.6175 166.201 39.48C165.071 38.3425 164.504 36.815 164.504 34.8988C164.504 33.0177 165.031 31.4512 166.085 30.2019C167.189 28.8681 168.681 28.2012 170.559 28.2012C172.403 28.2012 173.799 28.8681 174.747 30.2019C175.497 31.2614 175.875 32.5718 175.875 34.1279ZM173.164 33.409C173.183 32.5874 172.997 31.8776 172.612 31.2783C172.12 30.5074 171.364 30.1226 170.347 30.1226C169.417 30.1226 168.661 30.4983 168.084 31.2523C167.611 31.8516 167.329 32.5705 167.243 33.4077H173.164V33.409Z" fill="white"/>
<path d="M78.3997 13.0113C78.3997 14.5414 77.9291 15.6932 76.989 16.4667C76.1184 17.1804 74.881 17.5379 73.2784 17.5379C72.4837 17.5379 71.8037 17.5041 71.2344 17.4365V9.07621C71.977 8.95921 72.777 8.89941 73.641 8.89941C75.1677 8.89941 76.3184 9.22311 77.0944 9.87051C77.9637 10.6024 78.3997 11.6489 78.3997 13.0113ZM76.9264 13.049C76.9264 12.0571 76.657 11.2966 76.1184 10.7662C75.5797 10.2371 74.793 9.97191 73.757 9.97191C73.317 9.97191 72.9424 10.0005 72.6317 10.0603V16.416C72.8037 16.442 73.1184 16.4537 73.5757 16.4537C74.645 16.4537 75.4704 16.1638 76.0517 15.584C76.6331 15.0042 76.9264 14.1592 76.9264 13.049Z" fill="white"/>
<path d="M86.2117 14.3477C86.2117 15.2902 85.9357 16.0624 85.3837 16.6682C84.805 17.2909 84.0383 17.6016 83.081 17.6016C82.1583 17.6016 81.4237 17.3039 80.8757 16.7059C80.329 16.1092 80.0557 15.3565 80.0557 14.4491C80.0557 13.5001 80.337 12.7214 80.9023 12.1169C81.4677 11.5124 82.2277 11.2095 83.185 11.2095C84.1077 11.2095 84.849 11.5072 85.4103 12.1039C85.9437 12.6837 86.2117 13.4325 86.2117 14.3477ZM84.7623 14.3919C84.7623 13.8264 84.637 13.3415 84.3877 12.9372C84.0943 12.4484 83.677 12.204 83.1343 12.204C82.573 12.204 82.1463 12.4484 81.853 12.9372C81.6023 13.3415 81.4783 13.8342 81.4783 14.4166C81.4783 14.9821 81.6037 15.467 81.853 15.8713C82.1557 16.3601 82.577 16.6045 83.121 16.6045C83.6543 16.6045 84.073 16.3562 84.3743 15.8583C84.633 15.4462 84.7623 14.9574 84.7623 14.3919Z" fill="white"/>
<path d="M96.6867 11.3345L94.7201 17.4627H93.4401L92.6254 14.8016C92.4187 14.1373 92.2507 13.4769 92.1201 12.8217H92.0947C91.9734 13.4951 91.8054 14.1542 91.5894 14.8016L90.7241 17.4627H89.4294L87.5801 11.3345H89.0161L89.7267 14.2478C89.8987 14.9368 90.0401 15.5933 90.1534 16.2147H90.1787C90.2827 15.7025 90.4547 15.0499 90.6974 14.2608L91.5894 11.3358H92.7281L93.5827 14.1984C93.7894 14.8965 93.9574 15.5686 94.0867 16.216H94.1254C94.2201 15.5855 94.3627 14.9134 94.5521 14.1984L95.3147 11.3358H96.6867V11.3345Z" fill="white"/>
<path d="M103.93 17.4625H102.533V13.9525C102.533 12.8709 102.112 12.3301 101.266 12.3301C100.852 12.3301 100.517 12.4783 100.257 12.776C99.9996 13.0737 99.8689 13.4247 99.8689 13.8264V17.4612H98.4716V13.0854C98.4716 12.5472 98.4542 11.9635 98.4209 11.3317H99.6489L99.7142 12.2898H99.7529C99.9156 11.9921 100.158 11.7464 100.477 11.5501C100.856 11.3213 101.28 11.2056 101.744 11.2056C102.33 11.2056 102.818 11.3902 103.206 11.7607C103.689 12.2144 103.93 12.8917 103.93 13.7913V17.4625Z" fill="white"/>
<path d="M107.784 17.4626H106.388V8.52246H107.784V17.4626Z" fill="white"/>
<path d="M116.01 14.3477C116.01 15.2902 115.734 16.0624 115.182 16.6682C114.604 17.2909 113.836 17.6016 112.88 17.6016C111.956 17.6016 111.221 17.3039 110.674 16.7059C110.128 16.1092 109.854 15.3565 109.854 14.4491C109.854 13.5001 110.136 12.7214 110.701 12.1169C111.266 11.5124 112.026 11.2095 112.982 11.2095C113.906 11.2095 114.646 11.5072 115.209 12.1039C115.742 12.6837 116.01 13.4325 116.01 14.3477ZM114.56 14.3919C114.56 13.8264 114.434 13.3415 114.185 12.9372C113.893 12.4484 113.474 12.204 112.933 12.204C112.37 12.204 111.944 12.4484 111.652 12.9372C111.401 13.3415 111.277 13.8342 111.277 14.4166C111.277 14.9821 111.402 15.467 111.652 15.8713C111.954 16.3601 112.376 16.6045 112.92 16.6045C113.453 16.6045 113.87 16.3562 114.172 15.8583C114.432 15.4462 114.56 14.9574 114.56 14.3919Z" fill="white"/>
<path d="M122.773 17.4625H121.519L121.415 16.7566H121.376C120.947 17.3195 120.335 17.6016 119.54 17.6016C118.947 17.6016 118.467 17.4157 118.105 17.0465C117.777 16.7111 117.613 16.2938 117.613 15.7985C117.613 15.0497 117.933 14.479 118.577 14.0838C119.22 13.6886 120.124 13.4949 121.288 13.504V13.3896C121.288 12.5823 120.853 12.1793 119.983 12.1793C119.363 12.1793 118.816 12.3314 118.344 12.633L118.06 11.7386C118.644 11.3863 119.365 11.2095 120.216 11.2095C121.859 11.2095 122.683 12.0545 122.683 13.7445V16.0013C122.683 16.6136 122.713 17.1011 122.773 17.4625ZM121.323 15.3565V14.4114C119.781 14.3854 119.011 14.7975 119.011 15.6464C119.011 15.9662 119.099 16.2054 119.279 16.3653C119.459 16.5252 119.688 16.6045 119.961 16.6045C120.268 16.6045 120.555 16.5096 120.816 16.3211C121.079 16.1313 121.24 15.8908 121.3 15.5957C121.315 15.5294 121.323 15.4488 121.323 15.3565Z" fill="white"/>
<path d="M130.713 17.4626H129.473L129.408 16.4785H129.369C128.973 17.2273 128.298 17.6017 127.35 17.6017C126.593 17.6017 125.962 17.3118 125.462 16.732C124.962 16.1522 124.713 15.3995 124.713 14.4752C124.713 13.4833 124.984 12.6799 125.528 12.0663C126.054 11.4943 126.7 11.2083 127.468 11.2083C128.312 11.2083 128.902 11.4852 129.238 12.0403H129.265V8.52246H130.664V15.8116C130.664 16.4083 130.68 16.9582 130.713 17.4626ZM129.265 14.8782V13.8564C129.265 13.6796 129.252 13.5366 129.226 13.4274C129.148 13.0998 128.978 12.8242 128.721 12.6019C128.461 12.3796 128.148 12.2678 127.786 12.2678C127.265 12.2678 126.857 12.4693 126.557 12.8736C126.26 13.2779 126.109 13.794 126.109 14.4245C126.109 15.0303 126.252 15.5217 126.538 15.9C126.841 16.303 127.249 16.5045 127.76 16.5045C128.218 16.5045 128.585 16.3368 128.864 16.0001C129.133 15.6894 129.265 15.315 129.265 14.8782Z" fill="white"/>
<path d="M142.664 14.3477C142.664 15.2902 142.388 16.0624 141.836 16.6682C141.257 17.2909 140.492 17.6016 139.533 17.6016C138.612 17.6016 137.877 17.3039 137.328 16.7059C136.781 16.1092 136.508 15.3565 136.508 14.4491C136.508 13.5001 136.789 12.7214 137.354 12.1169C137.92 11.5124 138.68 11.2095 139.638 11.2095C140.56 11.2095 141.302 11.5072 141.862 12.1039C142.396 12.6837 142.664 13.4325 142.664 14.3477ZM141.216 14.3919C141.216 13.8264 141.09 13.3415 140.841 12.9372C140.546 12.4484 140.13 12.204 139.586 12.204C139.026 12.204 138.6 12.4484 138.305 12.9372C138.054 13.3415 137.93 13.8342 137.93 14.4166C137.93 14.9821 138.056 15.467 138.305 15.8713C138.608 16.3601 139.029 16.6045 139.573 16.6045C140.106 16.6045 140.526 16.3562 140.828 15.8583C141.085 15.4462 141.216 14.9574 141.216 14.3919Z" fill="white"/>
<path d="M150.177 17.4625H148.781V13.9525C148.781 12.8709 148.36 12.3301 147.513 12.3301C147.098 12.3301 146.764 12.4783 146.505 12.776C146.246 13.0737 146.117 13.4247 146.117 13.8264V17.4612H144.718V13.0854C144.718 12.5472 144.702 11.9635 144.669 11.3317H145.896L145.961 12.2898H146C146.164 11.9921 146.406 11.7464 146.724 11.5501C147.104 11.3213 147.526 11.2056 147.992 11.2056C148.577 11.2056 149.065 11.3902 149.453 11.7607C149.937 12.2144 150.177 12.8917 150.177 13.7913V17.4625Z" fill="white"/>
<path d="M159.581 12.3548H158.042V15.3318C158.042 16.0884 158.316 16.4667 158.857 16.4667C159.108 16.4667 159.316 16.4459 159.48 16.403L159.516 17.4365C159.24 17.5379 158.877 17.5886 158.43 17.5886C157.878 17.5886 157.449 17.4248 157.138 17.0972C156.826 16.7696 156.672 16.2184 156.672 15.4449V12.3548H155.753V11.3343H156.672V10.2111L158.041 9.80811V11.333H159.58V12.3548H159.581Z" fill="white"/>
<path d="M166.978 17.4626H165.58V13.9786C165.58 12.8801 165.158 12.3302 164.314 12.3302C163.666 12.3302 163.224 12.6487 162.981 13.2857C162.94 13.4196 162.916 13.5834 162.916 13.7758V17.4613H161.52V8.52246H162.916V12.2158H162.942C163.382 11.5437 164.013 11.2083 164.83 11.2083C165.409 11.2083 165.888 11.3929 166.268 11.7634C166.741 12.2249 166.978 12.9113 166.978 13.8187V17.4626Z" fill="white"/>
<path d="M174.609 14.1085C174.609 14.3529 174.591 14.5583 174.557 14.726H170.367C170.385 15.3318 170.585 15.7933 170.973 16.1131C171.328 16.3991 171.785 16.5421 172.345 16.5421C172.965 16.5421 173.531 16.4459 174.04 16.2522L174.259 17.1986C173.663 17.4508 172.961 17.5769 172.149 17.5769C171.176 17.5769 170.409 17.2974 169.855 16.7384C169.297 16.1794 169.021 15.4293 169.021 14.4881C169.021 13.5638 169.279 12.7942 169.797 12.1806C170.339 11.5254 171.071 11.1978 171.995 11.1978C172.899 11.1978 173.585 11.5254 174.049 12.1806C174.424 12.7006 174.609 13.3441 174.609 14.1085ZM173.276 13.7562C173.287 13.3519 173.195 13.0035 173.005 12.7097C172.763 12.3314 172.393 12.1416 171.893 12.1416C171.437 12.1416 171.065 12.3262 170.781 12.6967C170.549 12.9918 170.412 13.3441 170.367 13.7562H173.276Z" fill="white"/>
</svg>
