<svg width="180" height="48" viewBox="0 0 180 48" fill="none" xmlns="http://www.w3.org/2000/svg">
<path d="M180 42.4502C180 45.0063 177.694 47.0767 174.842 47.0767H6.04271C3.19192 47.0767 0.87793 45.0063 0.87793 42.4502V5.55539C0.87793 3.00055 3.19192 0.922852 6.04271 0.922852H174.84C177.694 0.922852 179.999 3.00055 179.999 5.55539L180 42.4502Z" fill="black"/>
<path d="M173.333 0.961493C176.42 0.961493 178.932 3.22199 178.932 5.99999V42C178.932 44.778 176.42 47.0385 173.333 47.0385H6.66667C3.58 47.0385 1.06833 44.778 1.06833 42V5.99999C1.06833 3.22199 3.58 0.961493 6.66667 0.961493H173.333ZM173.333 -6.91156e-06H6.66667C3.00167 -6.91156e-06 0 2.70149 0 5.99999V42C0 45.2985 3.00167 48 6.66667 48H173.333C176.998 48 180 45.2985 180 42V5.99999C180 2.70149 176.998 -6.91156e-06 173.333 -6.91156e-06Z" fill="#A6A6A6"/>
<path d="M46.6856 23.7404C46.6516 19.8728 49.7751 17.9912 49.918 17.9036C48.149 15.26 45.4071 14.8988 44.4436 14.87C42.1408 14.6216 39.907 16.2824 38.734 16.2824C37.5375 16.2824 35.731 14.894 33.7841 14.9348C31.2787 14.9744 28.9349 16.4612 27.6495 18.77C24.9966 23.4776 26.9751 30.3956 29.5168 34.2008C30.7882 36.0644 32.2739 38.1452 34.2184 38.072C36.1209 37.9916 36.8315 36.8288 39.1273 36.8288C41.4021 36.8288 42.0694 38.072 44.0526 38.0252C46.0943 37.9916 47.3798 36.1532 48.6067 34.2728C50.076 32.1368 50.6661 30.0332 50.6895 29.9252C50.6415 29.9084 46.7242 28.376 46.6856 23.7404Z" fill="white"/>
<path d="M42.9392 12.3668C43.9624 11.0552 44.6625 9.27076 44.4682 7.45996C42.9872 7.52716 41.1351 8.50996 40.0686 9.79276C39.125 10.9232 38.2821 12.776 38.4998 14.5184C40.1634 14.6456 41.8715 13.658 42.9392 12.3668Z" fill="white"/>
<path d="M74.2181 37.8046H71.5594L70.103 33.1138H65.0407L63.6534 37.8046H61.0649L66.0804 21.835H69.1781L74.2181 37.8046ZM69.664 31.1458L68.3469 26.9758C68.2076 26.5498 67.9465 25.5466 67.5613 23.9674H67.5145C67.3611 24.6466 67.1141 25.6498 66.7746 26.9758L65.4809 31.1458H69.664Z" fill="white"/>
<path d="M87.1161 31.9061C87.1161 33.8645 86.5998 35.4125 85.5672 36.5489C84.6423 37.5605 83.4938 38.0657 82.1229 38.0657C80.6431 38.0657 79.5801 37.5209 78.9327 36.4313H78.8858V42.4973H76.3898V30.0809C76.3898 28.8497 76.3582 27.5861 76.2974 26.2901H78.4925L78.6318 28.1153H78.6786C79.511 26.7401 80.7742 26.0537 82.4695 26.0537C83.7947 26.0537 84.9011 26.5901 85.7861 27.6641C86.6736 28.7393 87.1161 30.1529 87.1161 31.9061ZM84.5733 31.9997C84.5733 30.8789 84.3274 29.9549 83.8334 29.2277C83.2937 28.4693 82.569 28.0901 81.6605 28.0901C81.0447 28.0901 80.4851 28.3013 79.9852 28.7177C79.4841 29.1377 79.1563 29.6861 79.0029 30.3653C78.9257 30.6821 78.887 30.9413 78.887 31.1453V33.0653C78.887 33.9029 79.1376 34.6097 79.6386 35.1869C80.1397 35.7641 80.7906 36.0521 81.5914 36.0521C82.5315 36.0521 83.2632 35.6801 83.7865 34.9385C84.311 34.1957 84.5733 33.2165 84.5733 31.9997Z" fill="white"/>
<path d="M100.037 31.9061C100.037 33.8645 99.521 35.4125 98.4872 36.5489C97.5635 37.5605 96.415 38.0657 95.0441 38.0657C93.5643 38.0657 92.5013 37.5209 91.855 36.4313H91.8082V42.4973H89.3122V30.0809C89.3122 28.8497 89.2806 27.5861 89.2197 26.2901H91.4148L91.5542 28.1153H91.601C92.4322 26.7401 93.6954 26.0537 95.3918 26.0537C96.7159 26.0537 97.8223 26.5901 98.7097 27.6641C99.5936 28.7393 100.037 30.1529 100.037 31.9061ZM97.4945 31.9997C97.4945 30.8789 97.2474 29.9549 96.7534 29.2277C96.2137 28.4693 95.4913 28.0901 94.5817 28.0901C93.9647 28.0901 93.4063 28.3013 92.9052 28.7177C92.4041 29.1377 92.0775 29.6861 91.9241 30.3653C91.848 30.6821 91.8082 30.9413 91.8082 31.1453V33.0653C91.8082 33.9029 92.0587 34.6097 92.5575 35.1869C93.0586 35.7629 93.7095 36.0521 94.5126 36.0521C95.4527 36.0521 96.1844 35.6801 96.7077 34.9385C97.2322 34.1957 97.4945 33.2165 97.4945 31.9997Z" fill="white"/>
<path d="M114.485 33.3268C114.485 34.6852 114.025 35.7904 113.101 36.6436C112.086 37.576 110.673 38.0416 108.857 38.0416C107.181 38.0416 105.837 37.7104 104.819 37.0468L105.398 34.9144C106.493 35.5936 107.696 35.9344 109.006 35.9344C109.946 35.9344 110.678 35.716 111.203 35.2816C111.727 34.8472 111.988 34.264 111.988 33.5368C111.988 32.8888 111.772 32.3428 111.34 31.9C110.911 31.4572 110.193 31.0456 109.191 30.6652C106.463 29.6224 105.1 28.0948 105.1 26.086C105.1 24.7732 105.578 23.6968 106.534 22.8592C107.487 22.0204 108.759 21.6016 110.349 21.6016C111.766 21.6016 112.944 21.8548 113.884 22.36L113.26 24.4456C112.382 23.956 111.389 23.7112 110.278 23.7112C109.4 23.7112 108.714 23.9332 108.223 24.3748C107.807 24.7696 107.599 25.2508 107.599 25.8208C107.599 26.452 107.836 26.974 108.314 27.3844C108.73 27.7636 109.485 28.174 110.581 28.6168C111.921 29.17 112.906 29.8168 113.539 30.5584C114.17 31.2976 114.485 32.2228 114.485 33.3268Z" fill="white"/>
<path d="M122.736 28.2101H119.985V33.8009C119.985 35.2229 120.47 35.9333 121.441 35.9333C121.888 35.9333 122.257 35.8937 122.55 35.8145L122.619 37.7573C122.128 37.9457 121.48 38.0405 120.678 38.0405C119.692 38.0405 118.922 37.7321 118.366 37.1165C117.812 36.4997 117.534 35.4653 117.534 34.0121V28.2077H115.895V26.2877H117.534V24.1793L119.985 23.4209V26.2877H122.736V28.2101Z" fill="white"/>
<path d="M135.15 31.9527C135.15 33.7227 134.656 35.1759 133.67 36.3123C132.637 37.4823 131.265 38.0655 129.554 38.0655C127.906 38.0655 126.593 37.5051 125.615 36.3843C124.636 35.2635 124.146 33.8487 124.146 32.1435C124.146 30.3591 124.65 28.8975 125.66 27.7611C126.668 26.6235 128.029 26.0547 129.739 26.0547C131.387 26.0547 132.714 26.6151 133.715 27.7371C134.673 28.8255 135.15 30.2307 135.15 31.9527ZM132.561 32.0355C132.561 30.9735 132.339 30.0627 131.891 29.3031C131.368 28.3839 130.619 27.9255 129.65 27.9255C128.647 27.9255 127.885 28.3851 127.361 29.3031C126.913 30.0639 126.692 30.9891 126.692 32.0835C126.692 33.1455 126.913 34.0563 127.361 34.8147C127.901 35.7339 128.655 36.1923 129.628 36.1923C130.581 36.1923 131.329 35.7243 131.869 34.7907C132.329 34.0167 132.561 33.0963 132.561 32.0355Z" fill="white"/>
<path d="M143.263 28.5401C143.016 28.4933 142.753 28.4693 142.476 28.4693C141.598 28.4693 140.919 28.8089 140.442 29.4893C140.026 30.0893 139.818 30.8477 139.818 31.7633V37.8053H137.323L137.346 29.9165C137.346 28.5893 137.314 27.3809 137.252 26.2913H139.427L139.518 28.4945H139.587C139.85 27.7373 140.266 27.1277 140.835 26.6705C141.391 26.2589 141.992 26.0537 142.639 26.0537C142.87 26.0537 143.078 26.0705 143.263 26.1005V28.5401Z" fill="white"/>
<path d="M154.425 31.503C154.425 31.9614 154.396 32.3478 154.334 32.6634H146.846C146.875 33.801 147.237 34.671 147.933 35.271C148.564 35.8074 149.38 36.0762 150.382 36.0762C151.49 36.0762 152.502 35.895 153.412 35.5314L153.803 37.3074C152.74 37.7826 151.485 38.019 150.036 38.019C148.294 38.019 146.927 37.4934 145.932 36.4434C144.939 35.3934 144.441 33.9834 144.441 32.2146C144.441 30.4782 144.904 29.0322 145.83 27.879C146.799 26.6478 148.109 26.0322 149.758 26.0322C151.377 26.0322 152.603 26.6478 153.435 27.879C154.094 28.857 154.425 30.0666 154.425 31.503ZM152.045 30.8394C152.062 30.081 151.899 29.4258 151.561 28.8726C151.129 28.161 150.465 27.8058 149.572 27.8058C148.756 27.8058 148.092 28.1526 147.585 28.8486C147.169 29.4018 146.922 30.0654 146.846 30.8382H152.045V30.8394Z" fill="white"/>
<path d="M68.8369 12.0104C68.8369 13.4228 68.4237 14.486 67.5983 15.2C66.8338 15.8588 65.7474 16.1888 64.3401 16.1888C63.6424 16.1888 63.0453 16.1576 62.5454 16.0952V8.37804C63.1975 8.27004 63.8999 8.21484 64.6586 8.21484C65.9991 8.21484 67.0094 8.51364 67.6908 9.11124C68.4541 9.78684 68.8369 10.7528 68.8369 12.0104ZM67.5433 12.0452C67.5433 11.1296 67.3068 10.4276 66.8338 9.93804C66.3608 9.44964 65.6701 9.20484 64.7604 9.20484C64.3741 9.20484 64.0451 9.23124 63.7723 9.28644V15.1532C63.9234 15.1772 64.1997 15.188 64.6012 15.188C65.5401 15.188 66.2648 14.9204 66.7753 14.3852C67.2857 13.85 67.5433 13.07 67.5433 12.0452Z" fill="white"/>
<path d="M75.6963 13.2445C75.6963 14.1145 75.4539 14.8273 74.9693 15.3865C74.4612 15.9613 73.788 16.2481 72.9474 16.2481C72.1373 16.2481 71.4922 15.9733 71.011 15.4213C70.531 14.8705 70.291 14.1757 70.291 13.3381C70.291 12.4621 70.538 11.7433 71.0344 11.1853C71.5308 10.6273 72.1981 10.3477 73.0387 10.3477C73.8489 10.3477 74.4998 10.6225 74.9927 11.1733C75.461 11.7085 75.6963 12.3997 75.6963 13.2445ZM74.4237 13.2853C74.4237 12.7633 74.3137 12.3157 74.0947 11.9425C73.8372 11.4913 73.4707 11.2657 72.9942 11.2657C72.5014 11.2657 72.1267 11.4913 71.8692 11.9425C71.6491 12.3157 71.5402 12.7705 71.5402 13.3081C71.5402 13.8301 71.6502 14.2777 71.8692 14.6509C72.1349 15.1021 72.5049 15.3277 72.9825 15.3277C73.4508 15.3277 73.8184 15.0985 74.083 14.6389C74.3101 14.2585 74.4237 13.8073 74.4237 13.2853Z" fill="white"/>
<path d="M84.8936 10.4629L83.1667 16.1197H82.0428L81.3275 13.6633C81.146 13.0501 80.9985 12.4405 80.8838 11.8357H80.8616C80.755 12.4573 80.6075 13.0657 80.4178 13.6633L79.658 16.1197H78.5213L76.8975 10.4629H78.1583L78.7823 13.1521C78.9334 13.7881 79.0575 14.3941 79.157 14.9677H79.1792C79.2705 14.4949 79.4216 13.8925 79.6346 13.1641L80.4178 10.4641H81.4177L82.1681 13.1065C82.3496 13.7509 82.4971 14.3713 82.6106 14.9689H82.6446C82.7277 14.3869 82.853 13.7665 83.0192 13.1065L83.6889 10.4641H84.8936V10.4629Z" fill="white"/>
<path d="M91.2544 16.1198H90.0275V12.8798C90.0275 11.8814 89.6576 11.3822 88.9153 11.3822C88.5512 11.3822 88.2574 11.519 88.0291 11.7938C87.8031 12.0686 87.6884 12.3926 87.6884 12.7634V16.1186H86.4615V12.0794C86.4615 11.5826 86.4463 11.0438 86.417 10.4606H87.4952L87.5526 11.345H87.5866C87.7294 11.0702 87.9425 10.8434 88.2223 10.6622C88.5547 10.451 88.927 10.3442 89.3344 10.3442C89.8496 10.3442 90.2781 10.5146 90.6187 10.8566C91.0425 11.2754 91.2544 11.9006 91.2544 12.731V16.1198Z" fill="white"/>
<path d="M94.6374 16.1196H93.4116V7.86719H94.6374V16.1196Z" fill="white"/>
<path d="M101.861 13.2445C101.861 14.1145 101.619 14.8273 101.134 15.3865C100.626 15.9613 99.9519 16.2481 99.1125 16.2481C98.3011 16.2481 97.6561 15.9733 97.1761 15.4213C96.6961 14.8705 96.4561 14.1757 96.4561 13.3381C96.4561 12.4621 96.7031 11.7433 97.1995 11.1853C97.6959 10.6273 98.3632 10.3477 99.2026 10.3477C100.014 10.3477 100.664 10.6225 101.158 11.1733C101.626 11.7085 101.861 12.3997 101.861 13.2445ZM100.588 13.2853C100.588 12.7633 100.478 12.3157 100.259 11.9425C100.002 11.4913 99.6346 11.2657 99.1593 11.2657C98.6652 11.2657 98.2906 11.4913 98.0342 11.9425C97.8141 12.3157 97.7052 12.7705 97.7052 13.3081C97.7052 13.8301 97.8153 14.2777 98.0342 14.6509C98.3 15.1021 98.6699 15.3277 99.1476 15.3277C99.6159 15.3277 99.9823 15.0985 100.247 14.6389C100.475 14.2585 100.588 13.8073 100.588 13.2853Z" fill="white"/>
<path d="M107.799 16.1197H106.698L106.606 15.4681H106.572C106.195 15.9877 105.658 16.2481 104.96 16.2481C104.439 16.2481 104.018 16.0765 103.701 15.7357C103.413 15.4261 103.269 15.0409 103.269 14.5837C103.269 13.8925 103.55 13.3657 104.115 13.0009C104.679 12.6361 105.473 12.4573 106.495 12.4657V12.3601C106.495 11.6149 106.113 11.2429 105.349 11.2429C104.805 11.2429 104.325 11.3833 103.91 11.6617L103.661 10.8361C104.174 10.5109 104.807 10.3477 105.554 10.3477C106.996 10.3477 107.72 11.1277 107.72 12.6877V14.7709C107.72 15.3361 107.747 15.7861 107.799 16.1197ZM106.526 14.1757V13.3033C105.172 13.2793 104.495 13.6597 104.495 14.4433C104.495 14.7385 104.573 14.9593 104.731 15.1069C104.889 15.2545 105.09 15.3277 105.33 15.3277C105.599 15.3277 105.851 15.2401 106.081 15.0661C106.311 14.8909 106.453 14.6689 106.506 14.3965C106.519 14.3353 106.526 14.2609 106.526 14.1757Z" fill="white"/>
<path d="M114.771 16.1196H113.682L113.625 15.2112H113.591C113.243 15.9024 112.651 16.248 111.818 16.248C111.153 16.248 110.599 15.9804 110.16 15.4452C109.721 14.91 109.502 14.2152 109.502 13.362C109.502 12.4464 109.74 11.7048 110.218 11.1384C110.68 10.6104 111.247 10.3464 111.921 10.3464C112.662 10.3464 113.181 10.602 113.476 11.1144H113.499V7.86719H114.727V14.5956C114.727 15.1464 114.741 15.654 114.771 16.1196ZM113.499 13.734V12.7908C113.499 12.6276 113.488 12.4956 113.465 12.3948C113.396 12.0924 113.248 11.838 113.022 11.6328C112.793 11.4276 112.518 11.3244 112.201 11.3244C111.743 11.3244 111.385 11.5104 111.122 11.8836C110.86 12.2568 110.728 12.7332 110.728 13.3152C110.728 13.8744 110.853 14.328 111.105 14.6772C111.371 15.0492 111.729 15.2352 112.178 15.2352C112.58 15.2352 112.902 15.0804 113.147 14.7696C113.383 14.4828 113.499 14.1372 113.499 13.734Z" fill="white"/>
<path d="M125.264 13.2445C125.264 14.1145 125.021 14.8273 124.537 15.3865C124.029 15.9613 123.357 16.2481 122.515 16.2481C121.706 16.2481 121.061 15.9733 120.578 15.4213C120.098 14.8705 119.858 14.1757 119.858 13.3381C119.858 12.4621 120.105 11.7433 120.602 11.1853C121.098 10.6273 121.766 10.3477 122.607 10.3477C123.416 10.3477 124.068 10.6225 124.56 11.1733C125.028 11.7085 125.264 12.3997 125.264 13.2445ZM123.992 13.2853C123.992 12.7633 123.882 12.3157 123.663 11.9425C123.405 11.4913 123.039 11.2657 122.562 11.2657C122.07 11.2657 121.695 11.4913 121.437 11.9425C121.216 12.3157 121.108 12.7705 121.108 13.3081C121.108 13.8301 121.218 14.2777 121.437 14.6509C121.702 15.1021 122.072 15.3277 122.55 15.3277C123.018 15.3277 123.387 15.0985 123.652 14.6389C123.878 14.2585 123.992 13.8073 123.992 13.2853Z" fill="white"/>
<path d="M131.861 16.1198H130.635V12.8798C130.635 11.8814 130.265 11.3822 129.522 11.3822C129.158 11.3822 128.864 11.519 128.637 11.7938C128.41 12.0686 128.296 12.3926 128.296 12.7634V16.1186H127.068V12.0794C127.068 11.5826 127.054 11.0438 127.025 10.4606H128.102L128.159 11.345H128.193C128.337 11.0702 128.55 10.8434 128.829 10.6622C129.163 10.451 129.534 10.3442 129.942 10.3442C130.456 10.3442 130.885 10.5146 131.225 10.8566C131.65 11.2754 131.861 11.9006 131.861 12.731V16.1198Z" fill="white"/>
<path d="M140.118 11.4045H138.767V14.1525C138.767 14.8509 139.007 15.2001 139.483 15.2001C139.703 15.2001 139.886 15.1809 140.03 15.1413L140.061 16.0953C139.819 16.1889 139.5 16.2357 139.108 16.2357C138.623 16.2357 138.246 16.0845 137.974 15.7821C137.7 15.4797 137.564 14.9709 137.564 14.2569V11.4045H136.757V10.4625H137.564V9.42571L138.766 9.05371V10.4613H140.117V11.4045H140.118Z" fill="white"/>
<path d="M146.613 16.1196H145.385V12.9036C145.385 11.8896 145.015 11.382 144.274 11.382C143.705 11.382 143.316 11.676 143.103 12.264C143.067 12.3876 143.046 12.5388 143.046 12.7164V16.1184H141.82V7.86719H143.046V11.2764H143.069C143.455 10.656 144.009 10.3464 144.727 10.3464C145.235 10.3464 145.655 10.5168 145.989 10.8588C146.404 11.2848 146.613 11.9184 146.613 12.756V16.1196Z" fill="white"/>
<path d="M153.313 13.0237C153.313 13.2493 153.297 13.4389 153.268 13.5937H149.588C149.604 14.1529 149.78 14.5789 150.121 14.8741C150.432 15.1381 150.834 15.2701 151.325 15.2701C151.87 15.2701 152.366 15.1813 152.813 15.0025L153.005 15.8761C152.482 16.1089 151.866 16.2253 151.153 16.2253C150.299 16.2253 149.625 15.9673 149.138 15.4513C148.649 14.9353 148.407 14.2429 148.407 13.3741C148.407 12.5209 148.633 11.8105 149.088 11.2441C149.563 10.6393 150.206 10.3369 151.017 10.3369C151.811 10.3369 152.414 10.6393 152.822 11.2441C153.151 11.7241 153.313 12.3181 153.313 13.0237ZM152.143 12.6985C152.152 12.3253 152.071 12.0037 151.905 11.7325C151.692 11.3833 151.368 11.2081 150.928 11.2081C150.528 11.2081 150.201 11.3785 149.952 11.7205C149.748 11.9929 149.628 12.3181 149.588 12.6985H152.143Z" fill="white"/>
</svg>
