<svg width="205" height="59" viewBox="0 0 205 59" fill="none" xmlns="http://www.w3.org/2000/svg">
<path d="M205 51.9918C205 55.1223 202.374 57.6582 199.126 57.6582H6.88211C3.63538 57.6582 1 55.1223 1 51.9918V6.80416C1 3.67507 3.63538 1.13037 6.88211 1.13037H199.124C202.374 1.13037 204.998 3.67507 204.998 6.80416L205 51.9918Z" fill="black"/>
<path d="M197.407 1.17778C200.923 1.17778 203.783 3.94638 203.783 7.34878V51.4405C203.783 54.8429 200.923 57.6114 197.407 57.6114H7.59259C4.07722 57.6114 1.21671 54.8429 1.21671 51.4405V7.34878C1.21671 3.94638 4.07722 1.17778 7.59259 1.17778H197.407ZM197.407 0.000172125H7.59259C3.41856 0.000172125 0 3.30888 0 7.34878V51.4405C0 55.4804 3.41856 58.7891 7.59259 58.7891H197.407C201.581 58.7891 205 55.4804 205 51.4405V7.34878C205 3.30888 201.581 0.000172125 197.407 0.000172125Z" fill="#A6A6A6"/>
<path d="M53.1705 29.0769C53.1318 24.34 56.6891 22.0355 56.8518 21.9282C54.8371 18.6904 51.7145 18.248 50.6171 18.2127C47.9945 17.9085 45.4505 19.9426 44.1145 19.9426C42.7518 19.9426 40.6945 18.2421 38.4771 18.2921C35.6238 18.3406 32.9545 20.1616 31.4905 22.9893C28.4691 28.7551 30.7225 37.228 33.6171 41.8885C35.0651 44.171 36.7571 46.7195 38.9718 46.6298C41.1385 46.5313 41.9478 45.1072 44.5625 45.1072C47.1531 45.1072 47.9131 46.6298 50.1718 46.5725C52.4971 46.5313 53.9611 44.2797 55.3585 41.9767C57.0318 39.3606 57.7038 36.7841 57.7305 36.6519C57.6758 36.6313 53.2145 34.7545 53.1705 29.0769Z" fill="white"/>
<path d="M48.9038 15.1469C50.0691 13.5405 50.8665 11.355 50.6451 9.13721C48.9585 9.21951 46.8491 10.4232 45.6345 11.9943C44.5598 13.3788 43.5998 15.6481 43.8478 17.7821C45.7425 17.9379 47.6878 16.7283 48.9038 15.1469Z" fill="white"/>
<path d="M84.5269 46.3017H81.4989L79.8402 40.5566H74.0749L72.4949 46.3017H69.5469L75.2589 26.7427H78.7869L84.5269 46.3017ZM79.3402 38.1463L77.8402 33.039C77.6815 32.5172 77.3842 31.2885 76.9455 29.3544H76.8922C76.7175 30.1862 76.4362 31.4149 76.0495 33.039L74.5762 38.1463H79.3402Z" fill="white"/>
<path d="M99.2159 39.077C99.2159 41.4756 98.6279 43.3715 97.4519 44.7634C96.3985 46.0023 95.0905 46.6211 93.5292 46.6211C91.8439 46.6211 90.6332 45.9538 89.8959 44.6193H89.8425V52.0488H86.9999V36.8416C86.9999 35.3336 86.9639 33.786 86.8945 32.1987H89.3945L89.5532 34.4342H89.6065C90.5545 32.7499 91.9932 31.9092 93.9239 31.9092C95.4332 31.9092 96.6932 32.5661 97.7012 33.8815C98.7119 35.1984 99.2159 36.9297 99.2159 39.077ZM96.3199 39.1917C96.3199 37.8189 96.0399 36.6872 95.4772 35.7966C94.8625 34.8677 94.0372 34.4033 93.0025 34.4033C92.3012 34.4033 91.6639 34.662 91.0945 35.172C90.5239 35.6864 90.1505 36.358 89.9759 37.1899C89.8879 37.5779 89.8439 37.8954 89.8439 38.1452V40.4968C89.8439 41.5226 90.1292 42.3883 90.6999 43.0952C91.2705 43.8022 92.0119 44.1549 92.9239 44.1549C93.9945 44.1549 94.8279 43.6993 95.4239 42.791C96.0212 41.8812 96.3199 40.682 96.3199 39.1917Z" fill="white"/>
<path d="M113.932 39.077C113.932 41.4756 113.344 43.3715 112.167 44.7634C111.115 46.0023 109.807 46.6211 108.246 46.6211C106.56 46.6211 105.35 45.9538 104.614 44.6193H104.56V52.0488H101.718V36.8416C101.718 35.3336 101.682 33.786 101.612 32.1987H104.112L104.271 34.4342H104.324C105.271 32.7499 106.71 31.9092 108.642 31.9092C110.15 31.9092 111.41 32.5661 112.42 33.8815C113.427 35.1984 113.932 36.9297 113.932 39.077ZM111.036 39.1917C111.036 37.8189 110.755 36.6872 110.192 35.7966C109.578 34.8677 108.755 34.4033 107.719 34.4033C107.016 34.4033 106.38 34.662 105.81 35.172C105.239 35.6864 104.867 36.358 104.692 37.1899C104.606 37.5779 104.56 37.8954 104.56 38.1452V40.4968C104.56 41.5226 104.846 42.3883 105.414 43.0952C105.984 43.8007 106.726 44.1549 107.64 44.1549C108.711 44.1549 109.544 43.6993 110.14 42.791C110.738 41.8812 111.036 40.682 111.036 39.1917Z" fill="white"/>
<path d="M130.386 40.8172C130.386 42.4809 129.862 43.8345 128.81 44.8795C127.654 46.0215 126.045 46.5917 123.977 46.5917C122.067 46.5917 120.537 46.1861 119.378 45.3733L120.037 42.7616C121.285 43.5935 122.654 44.0109 124.146 44.0109C125.217 44.0109 126.05 43.7434 126.649 43.2114C127.245 42.6793 127.542 41.9651 127.542 41.0744C127.542 40.2808 127.297 39.612 126.805 39.0697C126.315 38.5274 125.498 38.0233 124.357 37.5574C121.25 36.2802 119.698 34.4092 119.698 31.9489C119.698 30.341 120.242 29.0227 121.331 27.9968C122.417 26.9695 123.865 26.4565 125.675 26.4565C127.29 26.4565 128.631 26.7667 129.702 27.3854L128.991 29.9398C127.991 29.3401 126.861 29.0403 125.595 29.0403C124.595 29.0403 123.814 29.3122 123.254 29.8531C122.781 30.3366 122.543 30.926 122.543 31.6241C122.543 32.3972 122.814 33.0365 123.358 33.5391C123.831 34.0036 124.691 34.5062 125.939 35.0485C127.466 35.7261 128.587 36.5183 129.309 37.4266C130.027 38.3319 130.386 39.4651 130.386 40.8172Z" fill="white"/>
<path d="M139.784 34.5502H136.651V41.3977C136.651 43.1393 137.203 44.0094 138.31 44.0094C138.818 44.0094 139.239 43.9609 139.572 43.8639L139.651 46.2433C139.091 46.4741 138.354 46.5902 137.44 46.5902C136.318 46.5902 135.44 46.2125 134.807 45.4585C134.176 44.7031 133.859 43.4362 133.859 41.6563V34.5473H131.992V32.1957H133.859V29.6134L136.651 28.6846V32.1957H139.784V34.5502Z" fill="white"/>
<path d="M153.922 39.1343C153.922 41.3022 153.359 43.082 152.236 44.4738C151.059 45.9068 149.496 46.6211 147.548 46.6211C145.671 46.6211 144.176 45.9347 143.062 44.562C141.947 43.1893 141.39 41.4565 141.39 39.368C141.39 37.1825 141.963 35.3924 143.114 34.0006C144.262 32.6073 145.811 31.9106 147.759 31.9106C149.636 31.9106 151.147 32.597 152.287 33.9712C153.378 35.3042 153.922 37.0253 153.922 39.1343ZM150.972 39.2357C150.972 37.935 150.72 36.8195 150.21 35.8892C149.614 34.7634 148.762 34.2019 147.658 34.2019C146.515 34.2019 145.647 34.7648 145.051 35.8892C144.54 36.821 144.288 37.9541 144.288 39.2945C144.288 40.5952 144.54 41.7107 145.051 42.6396C145.666 43.7654 146.524 44.3269 147.632 44.3269C148.718 44.3269 149.57 43.7537 150.184 42.6102C150.708 41.6623 150.972 40.535 150.972 39.2357Z" fill="white"/>
<path d="M163.162 34.9544C162.88 34.8971 162.58 34.8677 162.266 34.8677C161.266 34.8677 160.492 35.2837 159.948 36.117C159.475 36.8519 159.238 37.7807 159.238 38.9021V46.3022H156.396L156.423 36.6402C156.423 35.0147 156.387 33.5347 156.316 32.2002H158.792L158.896 34.8986H158.975C159.275 33.9712 159.748 33.2246 160.396 32.6646C161.03 32.1605 161.714 31.9092 162.451 31.9092C162.714 31.9092 162.951 31.9298 163.162 31.9665V34.9544Z" fill="white"/>
<path d="M175.875 38.5833C175.875 39.1447 175.841 39.618 175.771 40.0045H167.243C167.276 41.3978 167.688 42.4633 168.48 43.1982C169.199 43.8552 170.128 44.1844 171.269 44.1844C172.532 44.1844 173.684 43.9625 174.72 43.5171L175.165 45.6923C173.955 46.2743 172.525 46.5639 170.876 46.5639C168.892 46.5639 167.335 45.9201 166.201 44.6341C165.071 43.3481 164.504 41.6212 164.504 39.4548C164.504 37.3281 165.031 35.5571 166.085 34.1447C167.189 32.6368 168.681 31.8828 170.559 31.8828C172.403 31.8828 173.799 32.6368 174.747 34.1447C175.497 35.3425 175.875 36.824 175.875 38.5833ZM173.164 37.7705C173.183 36.8417 172.997 36.0392 172.612 35.3616C172.12 34.4901 171.364 34.0551 170.347 34.0551C169.417 34.0551 168.661 34.4798 168.084 35.3323C167.611 36.0098 167.329 36.8225 167.243 37.769H173.164V37.7705Z" fill="white"/>
<path d="M78.3997 14.7098C78.3997 16.4396 77.9291 17.7418 76.989 18.6163C76.1184 19.4232 74.881 19.8273 73.2784 19.8273C72.4837 19.8273 71.8037 19.7891 71.2344 19.7127V10.2609C71.977 10.1286 72.777 10.061 73.641 10.061C75.1677 10.061 76.3184 10.427 77.0944 11.1589C77.9637 11.9864 78.3997 13.1695 78.3997 14.7098ZM76.9264 14.7524C76.9264 13.631 76.657 12.7712 76.1184 12.1716C75.5797 11.5734 74.793 11.2736 73.757 11.2736C73.317 11.2736 72.9424 11.3059 72.6317 11.3735V18.559C72.8037 18.5884 73.1184 18.6016 73.5757 18.6016C74.645 18.6016 75.4704 18.2738 76.0517 17.6183C76.6331 16.9629 76.9264 16.0075 76.9264 14.7524Z" fill="white"/>
<path d="M86.2117 16.2212C86.2117 17.2868 85.9357 18.1598 85.3837 18.8447C84.805 19.5487 84.0383 19.9 83.081 19.9C82.1583 19.9 81.4237 19.5634 80.8757 18.8873C80.329 18.2127 80.0557 17.3618 80.0557 16.3359C80.0557 15.263 80.337 14.3826 80.9023 13.6992C81.4677 13.0158 82.2277 12.6733 83.185 12.6733C84.1077 12.6733 84.849 13.0099 85.4103 13.6845C85.9437 14.34 86.2117 15.1866 86.2117 16.2212ZM84.7623 16.2712C84.7623 15.6319 84.637 15.0837 84.3877 14.6266C84.0943 14.074 83.677 13.7977 83.1343 13.7977C82.573 13.7977 82.1463 14.074 81.853 14.6266C81.6023 15.0837 81.4783 15.6407 81.4783 16.2991C81.4783 16.9385 81.6037 17.4867 81.853 17.9438C82.1557 18.4964 82.577 18.7727 83.121 18.7727C83.6543 18.7727 84.073 18.492 84.3743 17.9291C84.633 17.4632 84.7623 16.9105 84.7623 16.2712Z" fill="white"/>
<path d="M96.6867 12.8145L94.7201 19.7427H93.4401L92.6254 16.7342C92.4187 15.9832 92.2507 15.2366 92.1201 14.4958H92.0947C91.9734 15.2571 91.8054 16.0023 91.5894 16.7342L90.7241 19.7427H89.4294L87.5801 12.8145H89.0161L89.7267 16.1081C89.8987 16.8871 90.0401 17.6293 90.1534 18.3318H90.1787C90.2827 17.7527 90.4547 17.0149 90.6974 16.1228L91.5894 12.8159H92.7281L93.5827 16.0523C93.7894 16.8415 93.9574 17.6013 94.0867 18.3333H94.1254C94.2201 17.6204 94.3627 16.8606 94.5521 16.0523L95.3147 12.8159H96.6867V12.8145Z" fill="white"/>
<path d="M103.93 19.7427H102.533V15.7745C102.533 14.5517 102.112 13.9403 101.266 13.9403C100.852 13.9403 100.517 14.1078 100.257 14.4444C99.9996 14.7809 99.8689 15.1778 99.8689 15.6319V19.7413H98.4716V14.7942C98.4716 14.1857 98.4542 13.5258 98.4209 12.8115H99.6489L99.7142 13.8947H99.7529C99.9156 13.5581 100.158 13.2804 100.477 13.0584C100.856 12.7998 101.28 12.6689 101.744 12.6689C102.33 12.6689 102.818 12.8776 103.206 13.2965C103.689 13.8095 103.93 14.5752 103.93 15.5922V19.7427Z" fill="white"/>
<path d="M107.784 19.7425H106.388V9.63525H107.784V19.7425Z" fill="white"/>
<path d="M116.01 16.2212C116.01 17.2868 115.734 18.1598 115.182 18.8447C114.604 19.5487 113.836 19.9 112.88 19.9C111.956 19.9 111.221 19.5634 110.674 18.8873C110.128 18.2127 109.854 17.3618 109.854 16.3359C109.854 15.263 110.136 14.3826 110.701 13.6992C111.266 13.0158 112.026 12.6733 112.982 12.6733C113.906 12.6733 114.646 13.0099 115.209 13.6845C115.742 14.34 116.01 15.1866 116.01 16.2212ZM114.56 16.2712C114.56 15.6319 114.434 15.0837 114.185 14.6266C113.893 14.074 113.474 13.7977 112.933 13.7977C112.37 13.7977 111.944 14.074 111.652 14.6266C111.401 15.0837 111.277 15.6407 111.277 16.2991C111.277 16.9385 111.402 17.4867 111.652 17.9438C111.954 18.4964 112.376 18.7727 112.92 18.7727C113.453 18.7727 113.87 18.492 114.172 17.9291C114.432 17.4632 114.56 16.9105 114.56 16.2712Z" fill="white"/>
<path d="M122.773 19.7427H121.519L121.415 18.9446H121.376C120.947 19.581 120.335 19.9 119.54 19.9C118.947 19.9 118.467 19.6898 118.105 19.2724C117.777 18.8932 117.613 18.4214 117.613 17.8615C117.613 17.0149 117.933 16.3697 118.577 15.9229C119.22 15.4761 120.124 15.2571 121.288 15.2674V15.1381C121.288 14.2254 120.853 13.7698 119.983 13.7698C119.363 13.7698 118.816 13.9417 118.344 14.2827L118.06 13.2715C118.644 12.8732 119.365 12.6733 120.216 12.6733C121.859 12.6733 122.683 13.6287 122.683 15.5393V18.0907C122.683 18.783 122.713 19.3341 122.773 19.7427ZM121.323 17.3618V16.2933C119.781 16.2639 119.011 16.7298 119.011 17.6895C119.011 18.0511 119.099 18.3215 119.279 18.5023C119.459 18.683 119.688 18.7727 119.961 18.7727C120.268 18.7727 120.555 18.6654 120.816 18.4523C121.079 18.2377 121.24 17.9658 121.3 17.6322C121.315 17.5572 121.323 17.4661 121.323 17.3618Z" fill="white"/>
<path d="M130.713 19.7425H129.473L129.408 18.63H129.369C128.973 19.4765 128.298 19.8998 127.35 19.8998C126.593 19.8998 125.962 19.572 125.462 18.9165C124.962 18.2611 124.713 17.4101 124.713 16.3651C124.713 15.2437 124.984 14.3354 125.528 13.6417C126.054 12.995 126.7 12.6717 127.468 12.6717C128.312 12.6717 128.902 12.9848 129.238 13.6123H129.265V9.63525H130.664V17.876C130.664 18.5506 130.68 19.1723 130.713 19.7425ZM129.265 16.8207V15.6655C129.265 15.4656 129.252 15.304 129.226 15.1805C129.148 14.8101 128.978 14.4986 128.721 14.2472C128.461 13.9959 128.148 13.8695 127.786 13.8695C127.265 13.8695 126.857 14.0973 126.557 14.5544C126.26 15.0115 126.109 15.595 126.109 16.3078C126.109 16.9927 126.252 17.5482 126.538 17.9759C126.841 18.4315 127.249 18.6593 127.76 18.6593C128.218 18.6593 128.585 18.4698 128.864 18.0891C129.133 17.7378 129.265 17.3146 129.265 16.8207Z" fill="white"/>
<path d="M142.664 16.2212C142.664 17.2868 142.388 18.1598 141.836 18.8447C141.257 19.5487 140.492 19.9 139.533 19.9C138.612 19.9 137.877 19.5634 137.328 18.8873C136.781 18.2127 136.508 17.3618 136.508 16.3359C136.508 15.263 136.789 14.3826 137.354 13.6992C137.92 13.0158 138.68 12.6733 139.638 12.6733C140.56 12.6733 141.302 13.0099 141.862 13.6845C142.396 14.34 142.664 15.1866 142.664 16.2212ZM141.216 16.2712C141.216 15.6319 141.09 15.0837 140.841 14.6266C140.546 14.074 140.13 13.7977 139.586 13.7977C139.026 13.7977 138.6 14.074 138.305 14.6266C138.054 15.0837 137.93 15.6407 137.93 16.2991C137.93 16.9385 138.056 17.4867 138.305 17.9438C138.608 18.4964 139.029 18.7727 139.573 18.7727C140.106 18.7727 140.526 18.492 140.828 17.9291C141.085 17.4632 141.216 16.9105 141.216 16.2712Z" fill="white"/>
<path d="M150.177 19.7427H148.781V15.7745C148.781 14.5517 148.36 13.9403 147.513 13.9403C147.098 13.9403 146.764 14.1078 146.505 14.4444C146.246 14.7809 146.117 15.1778 146.117 15.6319V19.7413H144.718V14.7942C144.718 14.1857 144.702 13.5258 144.669 12.8115H145.896L145.961 13.8947H146C146.164 13.5581 146.406 13.2804 146.724 13.0584C147.104 12.7998 147.526 12.6689 147.992 12.6689C148.577 12.6689 149.065 12.8776 149.453 13.2965C149.937 13.8095 150.177 14.5752 150.177 15.5922V19.7427Z" fill="white"/>
<path d="M159.581 13.9681H158.042V17.3337C158.042 18.1891 158.316 18.6168 158.857 18.6168C159.108 18.6168 159.316 18.5933 159.48 18.5448L159.516 19.7132C159.24 19.8278 158.877 19.8852 158.43 19.8852C157.878 19.8852 157.449 19.7 157.138 19.3296C156.826 18.9592 156.672 18.3361 156.672 17.4616V13.9681H155.753V12.8143H156.672V11.5445L158.041 11.0889V12.8129H159.58V13.9681H159.581Z" fill="white"/>
<path d="M166.978 19.7425H165.58V15.8037C165.58 14.5618 165.158 13.9401 164.314 13.9401C163.666 13.9401 163.224 14.3002 162.981 15.0203C162.94 15.1717 162.916 15.3569 162.916 15.5744V19.7411H161.52V9.63525H162.916V13.8107H162.942C163.382 13.0509 164.013 12.6717 164.83 12.6717C165.409 12.6717 165.888 12.8804 166.268 13.2993C166.741 13.821 166.978 14.597 166.978 15.6229V19.7425Z" fill="white"/>
<path d="M174.609 15.9509C174.609 16.2272 174.591 16.4594 174.557 16.649H170.367C170.385 17.3339 170.585 17.8556 170.973 18.2172C171.328 18.5405 171.785 18.7022 172.345 18.7022C172.965 18.7022 173.531 18.5934 174.04 18.3744L174.259 19.4444C173.663 19.7295 172.961 19.8721 172.149 19.8721C171.176 19.8721 170.409 19.5561 169.855 18.9241C169.297 18.2921 169.021 17.4441 169.021 16.38C169.021 15.3351 169.279 14.465 169.797 13.7713C170.339 13.0305 171.071 12.6602 171.995 12.6602C172.899 12.6602 173.585 13.0305 174.049 13.7713C174.424 14.3592 174.609 15.0867 174.609 15.9509ZM173.276 15.5526C173.287 15.0955 173.195 14.7016 173.005 14.3694C172.763 13.9418 172.393 13.7272 171.893 13.7272C171.437 13.7272 171.065 13.9359 170.781 14.3547C170.549 14.6884 170.412 15.0867 170.367 15.5526H173.276Z" fill="white"/>
</svg>
