<svg width="143" height="48" viewBox="0 0 143 48" fill="none" xmlns="http://www.w3.org/2000/svg">
<g clip-path="url(#clip0_173_2112)">
<path d="M131.429 0.000156H11.3791C10.9415 0.000156 10.5092 0.000156 10.0727 0.002556C9.70737 0.004956 9.34494 0.011928 8.97609 0.017796C8.17478 0.0272782 7.37535 0.0981675 6.58476 0.229848C5.79527 0.364395 5.03052 0.618055 4.31636 0.982248C3.60307 1.34952 2.95133 1.82676 2.38476 2.39664C1.81522 2.96492 1.34046 3.62178 0.97874 4.34195C0.616025 5.06069 0.364516 5.83088 0.232902 6.62593C0.100037 7.41998 0.0285408 8.22318 0.0190557 9.02833C0.00798147 9.39625 0.006812 9.7654 0.000976562 10.1334V37.8705C0.006812 38.2431 0.00798147 38.604 0.0190557 38.9768C0.0285437 39.7819 0.10004 40.585 0.232902 41.379C0.364153 42.1745 0.615676 42.9452 0.97874 43.6642C1.34029 44.382 1.81512 45.0362 2.38476 45.6014C2.94918 46.1738 3.60135 46.6513 4.31636 47.0158C5.03051 47.381 5.79518 47.6361 6.58476 47.7728C7.37549 47.9034 8.17483 47.9743 8.97609 47.9849C9.34494 47.9931 9.70737 47.9978 10.0727 47.9978C10.5091 48.0002 10.9415 48.0002 11.3791 48.0002H131.429C131.858 48.0002 132.294 48.0002 132.723 47.9978C133.086 47.9978 133.459 47.9931 133.823 47.9849C134.623 47.9749 135.421 47.9039 136.21 47.7728C137.002 47.6352 137.769 47.3801 138.487 47.0158C139.201 46.6511 139.853 46.1736 140.417 45.6014C140.985 45.034 141.461 44.3803 141.827 43.6642C142.187 42.9447 142.436 42.1741 142.566 41.379C142.699 40.5849 142.773 39.7819 142.787 38.9768C142.792 38.604 142.792 38.2431 142.792 37.8705C142.801 37.4345 142.801 37.001 142.801 36.5579V11.4435C142.801 11.0041 142.801 10.5681 142.792 10.1334C142.792 9.7654 142.792 9.39625 142.787 9.02828C142.773 8.22306 142.699 7.42004 142.566 6.62588C142.436 5.83129 142.187 5.06116 141.827 4.3419C141.09 2.89839 139.922 1.72339 138.487 0.98214C137.769 0.618837 137.002 0.365245 136.21 0.22974C135.421 0.0974794 134.623 0.0265653 133.823 0.017628C133.459 0.011772 133.086 0.00474 132.723 0.0024C132.294 0 131.858 0.000156 131.429 0.000156Z" fill="black"/>
<path d="M10.0787 46.9498C9.71514 46.9498 9.36034 46.9451 8.9996 46.937C8.25231 46.9272 7.50677 46.8618 6.76908 46.7412C6.08123 46.6221 5.41488 46.4005 4.79203 46.0838C4.17488 45.7696 3.61199 45.3577 3.12493 44.8638C2.63082 44.3758 2.21944 43.8097 1.90711 43.188C1.59134 42.5623 1.37281 41.8917 1.25913 41.1994C1.13636 40.4555 1.06994 39.7034 1.06044 38.9494C1.05287 38.6963 1.04297 37.8537 1.04297 37.8537V10.133C1.04297 10.133 1.05352 9.30332 1.0605 9.05956C1.0696 8.30678 1.13563 7.55579 1.25803 6.81308C1.37192 6.1189 1.59062 5.4463 1.90657 4.81856C2.21775 4.19734 2.62684 3.63084 3.11797 3.14102C3.60856 2.64655 4.17325 2.23253 4.79144 1.91406C5.41287 1.59832 6.07795 1.37828 6.76442 1.26133C7.50452 1.13961 8.25266 1.0738 9.00254 1.06446L10.0793 1.0498H132.717L133.807 1.06504C134.55 1.07392 135.291 1.13914 136.025 1.26015C136.718 1.37857 137.39 1.60014 138.019 1.91757C139.257 2.55939 140.265 3.5748 140.9 4.82149C141.211 5.4449 141.427 6.11201 141.539 6.80019C141.663 7.54899 141.732 8.30589 141.747 9.06484C141.75 9.40468 141.75 9.76972 141.75 10.133C141.759 10.583 141.759 11.0113 141.759 11.4432V36.5576C141.759 36.9935 141.759 37.4189 141.75 37.8478C141.75 38.238 141.75 38.5955 141.745 38.9634C141.731 39.7089 141.663 40.4522 141.541 41.1876C141.43 41.8849 141.213 42.5608 140.897 43.1916C140.582 43.8065 140.173 44.3677 139.685 44.8545C139.198 45.351 138.634 45.7653 138.015 46.0815C137.388 46.4007 136.717 46.6231 136.025 46.7412C135.287 46.8624 134.541 46.9278 133.794 46.937C133.444 46.9451 133.078 46.9498 132.723 46.9498L131.429 46.9522L10.0787 46.9498Z" fill="white"/>
<path d="M29.8305 23.8668C29.8438 22.8253 30.119 21.8041 30.6303 20.8982C31.1416 19.9923 31.8724 19.2311 32.7549 18.6856C32.1943 17.8805 31.4547 17.218 30.595 16.7506C29.7352 16.2832 28.7789 16.0238 27.802 15.9931C25.7182 15.7731 23.698 17.247 22.6361 17.247C21.5536 17.247 19.9187 16.0149 18.1581 16.0513C17.0193 16.0883 15.9095 16.4213 14.9367 17.0179C13.964 17.6145 13.1615 18.4542 12.6074 19.4554C10.2075 23.6338 11.9976 29.7747 14.2966 33.1522C15.4468 34.8061 16.7911 36.6535 18.5501 36.588C20.2714 36.5162 20.9143 35.4842 22.992 35.4842C25.0504 35.4842 25.6535 36.588 27.4482 36.5463C29.2953 36.5162 30.4589 34.8851 31.5688 33.2156C32.3953 32.0371 33.0312 30.7347 33.4531 29.3565C32.3801 28.9001 31.4643 28.1362 30.8201 27.16C30.1759 26.1838 29.8317 25.0384 29.8305 23.8668Z" fill="black"/>
<path d="M26.4409 13.7719C27.448 12.5562 27.9441 10.9936 27.824 9.41602C26.2854 9.57851 24.8642 10.318 23.8435 11.487C23.3445 12.0581 22.9623 12.7225 22.7188 13.4423C22.4752 14.162 22.3752 14.9229 22.4243 15.6816C23.1938 15.6896 23.9551 15.5218 24.6509 15.191C25.3466 14.8602 25.9587 14.375 26.4409 13.7719Z" fill="black"/>
<path d="M50.4811 32.5662H44.8325L43.476 36.594H41.0835L46.4337 21.6924H48.9194L54.2697 36.594H51.8364L50.4811 32.5662ZM45.4175 30.7076H49.8949L47.6877 24.1709H47.6259L45.4175 30.7076Z" fill="black"/>
<path d="M65.8247 31.1628C65.8247 34.5389 64.0277 36.7081 61.3159 36.7081C60.6289 36.7442 59.9457 36.5851 59.3445 36.2489C58.7433 35.9127 58.2484 35.4131 57.9165 34.8073H57.8652V40.1885H55.6475V25.7299H57.7941V27.537H57.8349C58.1821 26.934 58.6853 26.437 59.2911 26.0988C59.8969 25.7606 60.5825 25.5938 61.275 25.6163C64.0172 25.6163 65.8247 27.796 65.8247 31.1628ZM63.5452 31.1628C63.5452 28.9632 62.4148 27.517 60.6901 27.517C58.9956 27.517 57.8559 28.9936 57.8559 31.1628C57.8559 33.3518 58.9956 34.8178 60.6901 34.8178C62.4148 34.8178 63.5452 33.3823 63.5452 31.1628Z" fill="black"/>
<path d="M77.7164 31.1628C77.7164 34.5389 75.9188 36.7081 73.207 36.7081C72.52 36.7442 71.8368 36.5851 71.2356 36.2489C70.6344 35.9127 70.1395 35.4131 69.8076 34.8073H69.7563V40.1885H67.5386V25.7299H69.6852V27.537H69.726C70.0732 26.934 70.5765 26.437 71.1822 26.0988C71.788 25.7606 72.4736 25.5938 73.1662 25.6163C75.9083 25.6163 77.7164 27.796 77.7164 31.1628ZM75.4363 31.1628C75.4363 28.9632 74.3059 27.517 72.5812 27.517C70.8867 27.517 69.747 28.9936 69.747 31.1628C69.747 33.3518 70.8867 34.8178 72.5812 34.8178C74.3059 34.8178 75.4363 33.3823 75.4363 31.1628Z" fill="black"/>
<path d="M85.5739 32.4424C85.7382 33.9202 87.1658 34.8904 89.1166 34.8904C90.9859 34.8904 92.3307 33.9201 92.3307 32.5877C92.3307 31.4311 91.5196 30.7385 89.5991 30.2639L87.6786 29.7986C84.9574 29.1377 83.6942 27.858 83.6942 25.7814C83.6942 23.2104 85.9224 21.4443 89.0852 21.4443C92.2177 21.4443 94.3643 23.2104 94.4366 25.7814H92.1979C92.0639 24.2943 90.8414 23.3967 89.0549 23.3967C87.2684 23.3967 86.0459 24.3049 86.0459 25.6268C86.0459 26.6803 86.8267 27.3002 88.7367 27.7748L90.3694 28.1779C93.4098 28.9009 94.672 30.1291 94.672 32.3088C94.672 35.0966 92.4647 36.8427 88.9523 36.8427C85.6659 36.8427 83.4471 35.1377 83.3037 32.4423L85.5739 32.4424Z" fill="black"/>
<path d="M99.4617 23.1592V25.7303H101.516V27.4963H99.4617V33.4857C99.4617 34.4162 99.8731 34.8498 100.776 34.8498C101.02 34.8455 101.264 34.8283 101.506 34.7982V36.5537C101.1 36.63 100.687 36.6645 100.274 36.6568C98.0866 36.6568 97.2335 35.8306 97.2335 33.7236V27.4963H95.6626V25.7303H97.2335V23.1592H99.4617Z" fill="black"/>
<path d="M102.704 31.1631C102.704 27.7447 104.706 25.5967 107.828 25.5967C110.961 25.5967 112.954 27.7447 112.954 31.1631C112.954 34.5908 110.971 36.7295 107.828 36.7295C104.686 36.7295 102.704 34.5908 102.704 31.1631ZM110.694 31.1631C110.694 28.8182 109.625 27.4342 107.828 27.4342C106.031 27.4342 104.963 28.8287 104.963 31.1631C104.963 33.5174 106.031 34.8908 107.828 34.8908C109.625 34.8908 110.694 33.5174 110.694 31.1631Z" fill="black"/>
<path d="M114.783 25.7298H116.898V27.579H116.949C117.092 27.0015 117.429 26.4911 117.902 26.1336C118.375 25.7762 118.956 25.5934 119.548 25.6161C119.804 25.6152 120.058 25.6432 120.308 25.6994V27.7853C119.985 27.6862 119.649 27.6406 119.311 27.6505C118.989 27.6374 118.668 27.6945 118.37 27.818C118.072 27.9414 117.804 28.1283 117.584 28.3658C117.365 28.6033 117.199 28.8857 117.098 29.1937C116.997 29.5017 116.964 29.828 117 30.1501V36.5943H114.783L114.783 25.7298Z" fill="black"/>
<path d="M130.532 33.4037C130.234 35.376 128.324 36.7295 125.88 36.7295C122.737 36.7295 120.786 34.6119 120.786 31.2146C120.786 27.8068 122.747 25.5967 125.787 25.5967C128.776 25.5967 130.656 27.6615 130.656 30.9557V31.7197H123.025V31.8545C122.99 32.2543 123.039 32.6571 123.171 33.0361C123.302 33.4151 123.512 33.7617 123.787 34.0527C124.062 34.3438 124.396 34.5727 124.765 34.7243C125.135 34.8758 125.532 34.9466 125.931 34.9318C126.455 34.9812 126.981 34.8592 127.431 34.5838C127.88 34.3085 128.229 33.8946 128.426 33.4037L130.532 33.4037ZM123.035 30.1611H128.437C128.457 29.8016 128.402 29.4418 128.278 29.1044C128.153 28.7669 127.96 28.4591 127.711 28.2002C127.462 27.9413 127.163 27.7369 126.832 27.5998C126.5 27.4627 126.145 27.396 125.787 27.4037C125.426 27.4015 125.068 27.4713 124.733 27.609C124.399 27.7467 124.095 27.9496 123.84 28.2059C123.584 28.4623 123.381 28.7671 123.243 29.1026C123.105 29.4382 123.034 29.798 123.035 30.1611Z" fill="black"/>
<path d="M45.1394 10.4769C45.6043 10.4433 46.0708 10.514 46.5054 10.6837C46.9399 10.8534 47.3315 11.118 47.652 11.4583C47.9725 11.7987 48.2139 12.2063 48.3588 12.6518C48.5037 13.0974 48.5484 13.5697 48.4898 14.0347C48.4898 16.3222 47.2603 17.6371 45.1394 17.6371H42.5674V10.4769H45.1394ZM43.6733 16.6245H45.0158C45.3481 16.6444 45.6805 16.5897 45.9891 16.4641C46.2976 16.3386 46.5744 16.1455 46.7993 15.8988C47.0243 15.6521 47.1917 15.3581 47.2894 15.0381C47.387 14.7182 47.4126 14.3804 47.364 14.0493C47.409 13.7195 47.3809 13.3837 47.2817 13.0662C47.1826 12.7486 47.0147 12.457 46.7903 12.2122C46.5659 11.9675 46.2904 11.7757 45.9836 11.6507C45.6768 11.5256 45.3464 11.4703 45.0158 11.4887H43.6733V16.6245Z" fill="black"/>
<path d="M49.7395 14.9326C49.7057 14.5775 49.7461 14.2192 49.8581 13.8807C49.9701 13.5422 50.1512 13.231 50.3898 12.967C50.6284 12.703 50.9192 12.4921 51.2436 12.3478C51.5681 12.2035 51.9189 12.1289 52.2736 12.1289C52.6284 12.1289 52.9792 12.2035 53.3036 12.3478C53.628 12.4921 53.9189 12.703 54.1575 12.967C54.396 13.231 54.5771 13.5422 54.6891 13.8807C54.8011 14.2192 54.8415 14.5775 54.8077 14.9326C54.8422 15.288 54.8022 15.6468 54.6905 15.9858C54.5789 16.3249 54.3979 16.6366 54.1592 16.9011C53.9206 17.1656 53.6295 17.377 53.3048 17.5216C52.98 17.6663 52.6288 17.741 52.2736 17.741C51.9185 17.741 51.5672 17.6663 51.2425 17.5216C50.9178 17.377 50.6267 17.1656 50.388 16.9011C50.1494 16.6366 49.9684 16.3249 49.8567 15.9858C49.745 15.6468 49.7051 15.288 49.7395 14.9326ZM53.7169 14.9326C53.7169 13.7613 53.1937 13.0763 52.2754 13.0763C51.3536 13.0763 50.835 13.7613 50.835 14.9326C50.835 16.1132 51.3536 16.7929 52.2754 16.7929C53.1937 16.7929 53.7169 16.1085 53.7169 14.9326Z" fill="black"/>
<path d="M61.5441 17.6369H60.444L59.3334 13.6572H59.2495L58.1436 17.6369H57.0539L55.5728 12.2334H56.6484L57.611 16.3566H57.6902L58.795 12.2334H59.8124L60.9172 16.3566H61.0011L61.959 12.2334H63.0195L61.5441 17.6369Z" fill="black"/>
<path d="M64.2656 12.2336H65.2865V13.092H65.3657C65.5002 12.7837 65.7269 12.5253 66.0144 12.3527C66.3018 12.1802 66.6356 12.1021 66.9693 12.1293C67.2308 12.1096 67.4933 12.1492 67.7374 12.2453C67.9816 12.3414 68.2011 12.4916 68.3797 12.6846C68.5584 12.8776 68.6915 13.1086 68.7693 13.3603C68.8471 13.6121 68.8676 13.8783 68.8292 14.1391V17.6371H67.7687V14.4069C67.7687 13.5385 67.3935 13.1067 66.6092 13.1067C66.4317 13.0984 66.2545 13.1288 66.0897 13.1958C65.925 13.2628 65.7766 13.3648 65.6547 13.4948C65.5328 13.6249 65.4404 13.7799 65.3837 13.9493C65.3269 14.1186 65.3073 14.2983 65.3261 14.476V17.6372H64.2656L64.2656 12.2336Z" fill="black"/>
<path d="M70.519 10.124H71.5795V17.6369H70.519V10.124Z" fill="black"/>
<path d="M73.0539 14.9327C73.0202 14.5775 73.0606 14.2192 73.1726 13.8807C73.2846 13.5422 73.4658 13.231 73.7044 12.967C73.943 12.7031 74.2339 12.4921 74.5583 12.3478C74.8827 12.2035 75.2336 12.1289 75.5883 12.1289C75.9431 12.1289 76.294 12.2035 76.6184 12.3478C76.9428 12.4921 77.2337 12.7031 77.4723 12.967C77.7109 13.231 77.892 13.5422 78.0041 13.8807C78.1161 14.2192 78.1565 14.5775 78.1227 14.9327C78.1571 15.2881 78.1172 15.6469 78.0054 15.986C77.8937 16.325 77.7127 16.6368 77.474 16.9012C77.2353 17.1657 76.9443 17.3771 76.6195 17.5217C76.2948 17.6664 75.9435 17.7411 75.5883 17.7411C75.2332 17.7411 74.8819 17.6664 74.5572 17.5217C74.2324 17.3771 73.9414 17.1657 73.7027 16.9012C73.464 16.6368 73.283 16.325 73.1712 15.986C73.0595 15.6469 73.0196 15.2881 73.0539 14.9327ZM77.0314 14.9327C77.0314 13.7614 76.5081 13.0764 75.5898 13.0764C74.668 13.0764 74.1494 13.7614 74.1494 14.9327C74.1494 16.1133 74.668 16.793 75.5898 16.793C76.5081 16.793 77.0314 16.1086 77.0314 14.9327Z" fill="black"/>
<path d="M79.2388 16.1086C79.2388 15.1359 79.959 14.5752 81.2374 14.4955L82.6929 14.4111V13.9447C82.6929 13.374 82.3177 13.0518 81.5928 13.0518C81.0008 13.0518 80.5906 13.2703 80.4729 13.6523H79.4462C79.5546 12.7242 80.4228 12.1289 81.6418 12.1289C82.9889 12.1289 83.7488 12.8033 83.7488 13.9447V17.6367H82.7279V16.8773H82.644C82.4737 17.1497 82.2345 17.3718 81.951 17.5208C81.6674 17.6699 81.3496 17.7406 81.0299 17.7257C80.8044 17.7493 80.5764 17.7251 80.3607 17.6547C80.1449 17.5843 79.9463 17.4691 79.7776 17.3168C79.6088 17.1644 79.4737 16.9782 79.3809 16.7701C79.2881 16.562 79.2397 16.3366 79.2388 16.1086ZM82.6929 15.6469V15.1951L81.3807 15.2795C80.6407 15.3293 80.3051 15.5824 80.3051 16.0588C80.3051 16.5451 80.7246 16.8281 81.3015 16.8281C81.4705 16.8453 81.6413 16.8282 81.8036 16.7776C81.9659 16.7271 82.1164 16.6443 82.2462 16.5341C82.3761 16.4239 82.4825 16.2885 82.5593 16.1361C82.636 15.9837 82.6815 15.8173 82.6929 15.6469Z" fill="black"/>
<path d="M85.1426 14.9328C85.1426 13.2254 86.0154 12.1438 87.3731 12.1438C87.7089 12.1282 88.0422 12.2091 88.334 12.377C88.6258 12.5448 88.8641 12.7928 89.0209 13.0918H89.1002V10.124H90.1607V17.6369H89.1445V16.7832H89.0606C88.8916 17.0802 88.645 17.325 88.3476 17.4912C88.0501 17.6574 87.7131 17.7386 87.3731 17.726C86.0061 17.726 85.1426 16.6444 85.1426 14.9328ZM86.2381 14.9328C86.2381 16.0789 86.7753 16.7686 87.6738 16.7686C88.5676 16.7686 89.12 16.069 89.12 14.9375C89.12 13.8113 88.5618 13.1018 87.6738 13.1018C86.7811 13.1018 86.2381 13.7961 86.2381 14.9328Z" fill="black"/>
<path d="M94.5486 14.9326C94.5148 14.5775 94.5552 14.2192 94.6672 13.8807C94.7792 13.5422 94.9603 13.231 95.1989 12.967C95.4375 12.703 95.7283 12.4921 96.0527 12.3478C96.3771 12.2035 96.728 12.1289 97.0827 12.1289C97.4375 12.1289 97.7883 12.2035 98.1127 12.3478C98.4371 12.4921 98.7279 12.703 98.9665 12.967C99.2051 13.231 99.3862 13.5422 99.4982 13.8807C99.6102 14.2192 99.6506 14.5775 99.6168 14.9326C99.6512 15.288 99.6113 15.6468 99.4996 15.9858C99.3879 16.3249 99.207 16.6366 98.9683 16.9011C98.7296 17.1656 98.4386 17.377 98.1138 17.5216C97.7891 17.6663 97.4379 17.741 97.0827 17.741C96.7275 17.741 96.3763 17.6663 96.0516 17.5216C95.7268 17.377 95.4358 17.1656 95.1971 16.9011C94.9585 16.6366 94.7775 16.3249 94.6658 15.9858C94.5541 15.6468 94.5142 15.288 94.5486 14.9326ZM98.526 14.9326C98.526 13.7613 98.0028 13.0763 97.0845 13.0763C96.1626 13.0763 95.6441 13.7613 95.6441 14.9326C95.6441 16.1132 96.1627 16.7929 97.0845 16.7929C98.0028 16.7929 98.526 16.1085 98.526 14.9326Z" fill="black"/>
<path d="M101.04 12.2336H102.06V13.092H102.14C102.274 12.7837 102.501 12.5253 102.788 12.3527C103.076 12.1802 103.41 12.1021 103.743 12.1293C104.005 12.1096 104.267 12.1492 104.511 12.2453C104.756 12.3414 104.975 12.4916 105.154 12.6846C105.332 12.8776 105.465 13.1086 105.543 13.3603C105.621 13.6121 105.642 13.8783 105.603 14.1391V17.6371H104.543V14.4069C104.543 13.5385 104.167 13.1067 103.383 13.1067C103.206 13.0984 103.028 13.1288 102.864 13.1958C102.699 13.2628 102.55 13.3648 102.429 13.4948C102.307 13.6249 102.214 13.7799 102.158 13.9493C102.101 14.1186 102.081 14.2983 102.1 14.476V17.6372H101.04V12.2336Z" fill="black"/>
<path d="M111.595 10.8877V12.2576H112.76V13.1559H111.595V15.9344C111.595 16.5004 111.827 16.7482 112.355 16.7482C112.49 16.7478 112.625 16.7396 112.76 16.7236V17.6119C112.569 17.6462 112.376 17.6644 112.183 17.6664C111.003 17.6664 110.534 17.2492 110.534 16.2074V13.1558H109.681V12.2576H110.534V10.8877H111.595Z" fill="black"/>
<path d="M114.208 10.124H115.259V13.1018H115.343C115.484 12.7906 115.717 12.5307 116.01 12.3575C116.303 12.1842 116.642 12.1061 116.981 12.1338C117.241 12.1196 117.501 12.1632 117.743 12.2617C117.984 12.3601 118.201 12.5109 118.378 12.7033C118.554 12.8957 118.687 13.125 118.765 13.3748C118.844 13.6245 118.866 13.8886 118.832 14.1482V17.6369H117.77V14.4113C117.77 13.5482 117.37 13.1111 116.621 13.1111C116.439 13.0961 116.255 13.1213 116.084 13.185C115.912 13.2486 115.757 13.3492 115.628 13.4797C115.499 13.6102 115.4 13.7674 115.338 13.9404C115.276 14.1133 115.252 14.2979 115.268 14.481V17.6369H114.208L114.208 10.124Z" fill="black"/>
<path d="M125.016 16.1778C124.872 16.6717 124.559 17.0988 124.134 17.3846C123.708 17.6704 123.196 17.7966 122.687 17.7411C122.333 17.7505 121.981 17.6823 121.656 17.5413C121.331 17.4002 121.04 17.1897 120.804 16.9244C120.568 16.659 120.392 16.3451 120.289 16.0046C120.185 15.664 120.157 15.3048 120.205 14.952C120.158 14.5982 120.187 14.2383 120.29 13.8967C120.393 13.5551 120.568 13.2397 120.803 12.972C121.038 12.7044 121.328 12.4905 121.652 12.3451C121.976 12.1996 122.328 12.126 122.683 12.129C124.178 12.129 125.08 13.1562 125.08 14.853V15.2251H121.285V15.2849C121.269 15.4832 121.294 15.6828 121.358 15.8709C121.423 16.059 121.526 16.2314 121.66 16.3772C121.795 16.5229 121.959 16.6387 122.141 16.7172C122.322 16.7957 122.519 16.8351 122.716 16.8329C122.97 16.8635 123.227 16.8176 123.455 16.7009C123.682 16.5843 123.87 16.4022 123.995 16.1778L125.016 16.1778ZM121.285 14.4364H123.999C124.013 14.2551 123.988 14.0729 123.928 13.9016C123.867 13.7304 123.771 13.5738 123.646 13.442C123.522 13.3101 123.371 13.206 123.204 13.1362C123.037 13.0664 122.858 13.0324 122.677 13.0366C122.493 13.0343 122.311 13.0689 122.141 13.1385C121.972 13.208 121.817 13.311 121.688 13.4415C121.558 13.5719 121.455 13.7272 121.386 13.8981C121.317 14.0689 121.283 14.252 121.285 14.4364Z" fill="black"/>
</g>
<defs>
<clipPath id="clip0_173_2112">
<rect width="142.8" height="48" fill="white"/>
</clipPath>
</defs>
</svg>
