<svg width="20" height="20" viewBox="0 0 20 20" fill="none" xmlns="http://www.w3.org/2000/svg">
<g clip-path="url(#clip0_173_2051)">
<path d="M14.167 1.66699H5.83366C3.53247 1.66699 1.66699 3.53247 1.66699 5.83366V14.167C1.66699 16.4682 3.53247 18.3337 5.83366 18.3337H14.167C16.4682 18.3337 18.3337 16.4682 18.3337 14.167V5.83366C18.3337 3.53247 16.4682 1.66699 14.167 1.66699Z" stroke="white" stroke-width="1.66667" stroke-linecap="round" stroke-linejoin="round"/>
<path d="M13.3328 9.47525C13.4356 10.1688 13.3171 10.8771 12.9942 11.4994C12.6713 12.1218 12.1604 12.6264 11.5341 12.9416C10.9079 13.2569 10.1981 13.3666 9.50592 13.2552C8.8137 13.1438 8.17423 12.817 7.67846 12.3212C7.18269 11.8255 6.85587 11.186 6.74449 10.4938C6.6331 9.80154 6.74282 9.09183 7.05804 8.46556C7.37325 7.8393 7.87792 7.32837 8.50025 7.00545C9.12258 6.68254 9.83089 6.56407 10.5244 6.66692C11.2319 6.77182 11.8868 7.10147 12.3925 7.60717C12.8982 8.11288 13.2279 8.76782 13.3328 9.47525Z" stroke="white" stroke-width="1.66667" stroke-linecap="round" stroke-linejoin="round"/>
<path d="M14.583 5.41699H14.5913" stroke="white" stroke-width="1.66667" stroke-linecap="round" stroke-linejoin="round"/>
</g>
<defs>
<clipPath id="clip0_173_2051">
<rect width="20" height="20" fill="white"/>
</clipPath>
</defs>
</svg>
