<svg width="64" height="64" viewBox="0 0 64 64" fill="none" xmlns="http://www.w3.org/2000/svg">
<g clip-path="url(#clip0_168_1246)">
<rect width="64" height="64" fill="#28D664"/>
<g filter="url(#filter0_f_168_1246)">
<circle cx="95.0772" cy="107.033" r="30.75" transform="rotate(-40.686 95.0772 107.033)" fill="black"/>
</g>
<g filter="url(#filter1_f_168_1246)">
<ellipse cx="9.0454" cy="16.3563" rx="28.75" ry="26.303" transform="rotate(-40.686 9.0454 16.3563)" fill="#047A17" fill-opacity="0.9"/>
</g>
<g filter="url(#filter2_f_168_1246)">
<ellipse cx="53.4472" cy="43.1748" rx="28.75" ry="40.25" transform="rotate(-40.686 53.4472 43.1748)" fill="#FFF73A" fill-opacity="0.7"/>
</g>
<path fill-rule="evenodd" clip-rule="evenodd" d="M46.9299 16.3273L48.2388 16.0779C51.5738 15.4424 53.1561 13.5223 53.1561 12.0516C53.1561 11.1556 52.6336 10.1477 51.3896 9.28623C50.1532 8.42987 48.3456 7.84166 46.2611 7.84166C43.9077 7.84166 41.923 8.58963 40.7039 9.61274L39.9717 10.2272L39.0509 9.97393C38.2294 9.74796 37.3209 9.62045 36.3592 9.62045C35.57 9.62045 34.816 9.70635 34.1162 9.86235L33.304 10.0434L32.6353 9.54704C31.2804 8.5413 29.2349 7.84166 26.8621 7.84166C24.8754 7.84166 23.1072 8.33314 21.7844 9.09301L21.2008 9.42826L20.5399 9.30331C19.8609 9.17494 19.1407 9.10542 18.3926 9.10542C16.1257 9.10542 14.1533 9.74179 12.7982 10.6758C11.435 11.6153 10.8437 12.7284 10.8437 13.7366C10.8437 15.3913 12.6111 17.4722 16.2144 18.1641L17.4965 18.4103L19.8487 35.266H44.6318L46.9299 16.3273ZM46.247 37.0945H18.2624L15.8713 19.9599C11.9196 19.2011 9.02002 16.7022 9.02002 13.7366C9.02002 10.1691 13.2162 7.27695 18.3926 7.27695C19.253 7.27695 20.0863 7.35686 20.8778 7.5065C22.5012 6.57392 24.587 6.01318 26.8621 6.01318C29.5698 6.01318 32.0094 6.80742 33.7204 8.07747C34.5519 7.89211 35.4386 7.79198 36.3592 7.79198C37.4804 7.79198 38.5514 7.94049 39.5334 8.21061C41.1325 6.86859 43.5526 6.01318 46.2611 6.01318C51.0763 6.01318 54.9798 8.71667 54.9798 12.0516C54.9798 14.8306 52.2692 17.1711 48.5793 17.8742L46.247 37.0945ZM45.9244 52.3819C45.9103 52.2384 45.8947 52.0838 45.8778 51.9188C45.7751 50.921 45.6252 49.5799 45.4527 48.1008C45.428 47.8888 45.4028 47.6742 45.3773 47.4574C45.3469 47.5821 45.3063 47.7211 45.2505 47.8627C45.1848 48.0295 45.0349 48.3677 44.7172 48.667C44.4343 48.9336 44.0345 49.1891 43.7298 49.3751C43.379 49.5893 42.9662 49.8223 42.5499 50.0489C41.7154 50.503 40.8065 50.9638 40.2212 51.2511L38.8239 51.937L37.9282 50.6616C37.9291 50.6629 37.9283 50.662 37.9259 50.6592C37.909 50.6393 37.8098 50.5232 37.6283 50.3905C37.4331 50.2478 37.2043 50.1314 36.9613 50.0775C36.8322 50.0489 36.3886 49.9946 35.6217 49.9424C35.1577 49.9108 34.6208 49.8827 34.0441 49.8599C33.9879 49.9119 33.9283 49.9626 33.8653 50.0117C33.2882 50.4614 32.5988 50.6402 31.9083 50.6402C31.1975 50.6402 30.4584 50.4705 29.8482 49.9731C29.786 49.9224 29.7276 49.8702 29.6727 49.817C29.175 49.8298 28.7207 49.8503 28.3318 49.8789C28.0118 49.9025 27.7584 49.9301 27.5731 49.959C27.4625 49.9763 27.4041 49.9899 27.3845 49.9945C26.5767 50.344 25.8557 50.8547 25.6453 51.0266L24.9125 51.6251L24.0023 51.3698C23.3499 51.1868 22.356 50.8436 21.4354 50.3836C20.9753 50.1537 20.484 49.8703 20.0506 49.5316C19.6447 49.2143 19.1319 48.7281 18.8445 48.0472C18.6724 47.6394 18.5711 47.1118 18.504 46.6173C18.3999 47.1672 18.3002 47.7108 18.2075 48.2385C17.9447 49.7331 17.7442 51.0627 17.6507 52.0405C17.6269 52.2902 17.6114 52.5026 17.6029 52.6792C17.8612 52.8047 18.1909 52.9524 18.5866 53.1163C19.5687 53.5231 20.8878 54.001 22.3866 54.4568C25.415 55.3779 29.0094 56.1579 31.9633 56.1579C34.8512 56.1579 38.573 55.1363 41.7072 54.0328C43.2455 53.4911 44.5906 52.9487 45.5505 52.5418C45.6827 52.4858 45.8075 52.4323 45.9244 52.3819ZM20.0456 40.9038C20.0653 43.352 20.177 46.5125 20.524 47.3346C20.9686 48.388 23.3556 49.2897 24.4936 49.6089C24.8112 49.3496 25.7004 48.7231 26.7166 48.2922C27.2288 48.075 28.8386 47.9843 30.6659 47.973C30.7601 48.4051 31.0452 48.8117 31.9083 48.8117C32.6634 48.8117 32.9852 48.4322 33.1153 47.9999C35.0426 48.0512 36.7879 48.1664 37.3551 48.2922C38.4348 48.5316 39.1811 49.2698 39.4193 49.6089C40.5573 49.0503 42.9602 47.8134 43.4683 47.3346C43.873 46.9533 44.0104 43.718 43.8436 41.0623C43.801 40.3838 43.8867 39.595 43.8436 39.0754H46.1676C46.8028 43.7835 47.9 53.0508 47.8364 53.5296C47.8364 53.5296 38.3941 57.9863 31.9633 57.9863C25.5326 57.9863 16.7926 54.6363 15.9192 53.7984C15.2206 53.1281 17.1631 43.7037 18.2216 39.0754H20.0476C20.0418 39.5833 20.0401 40.2154 20.0456 40.9038ZM46.0154 53.4722C46.0159 53.4859 46.0158 53.4918 46.0157 53.4912C46.0156 53.4906 46.0154 53.4839 46.0154 53.4722Z" fill="#FAFAFA"/>
</g>
<defs>
<filter id="filter0_f_168_1246" x="45.5767" y="57.5322" width="99.001" height="99.0015" filterUnits="userSpaceOnUse" color-interpolation-filters="sRGB">
<feFlood flood-opacity="0" result="BackgroundImageFix"/>
<feBlend mode="normal" in="SourceGraphic" in2="BackgroundImageFix" result="shape"/>
<feGaussianBlur stdDeviation="9.375" result="effect1_foregroundBlur_168_1246"/>
</filter>
<filter id="filter1_f_168_1246" x="-37.4424" y="-29.7637" width="92.9756" height="92.2397" filterUnits="userSpaceOnUse" color-interpolation-filters="sRGB">
<feFlood flood-opacity="0" result="BackgroundImageFix"/>
<feBlend mode="normal" in="SourceGraphic" in2="BackgroundImageFix" result="shape"/>
<feGaussianBlur stdDeviation="9.375" result="effect1_foregroundBlur_168_1246"/>
</filter>
<filter id="filter2_f_168_1246" x="0.582031" y="-11.397" width="105.73" height="109.144" filterUnits="userSpaceOnUse" color-interpolation-filters="sRGB">
<feFlood flood-opacity="0" result="BackgroundImageFix"/>
<feBlend mode="normal" in="SourceGraphic" in2="BackgroundImageFix" result="shape"/>
<feGaussianBlur stdDeviation="9.375" result="effect1_foregroundBlur_168_1246"/>
</filter>
<clipPath id="clip0_168_1246">
<rect width="64" height="64" rx="13.8894" fill="white"/>
</clipPath>
</defs>
</svg>
