<svg width="36" height="36" viewBox="0 0 36 36" fill="none" xmlns="http://www.w3.org/2000/svg">
<rect width="36" height="36" rx="7.81277" fill="white"/>
<mask id="mask0_168_1214" style="mask-type:alpha" maskUnits="userSpaceOnUse" x="5" y="3" width="26" height="30">
<path fill-rule="evenodd" clip-rule="evenodd" d="M10.2701 20.87H26.0115L27.3234 10.0585C29.399 9.66305 30.9236 8.34651 30.9236 6.78332C30.9236 4.90743 28.7279 3.38672 26.0194 3.38672C24.4958 3.38672 23.1346 3.86788 22.235 4.62277C21.6827 4.47083 21.0802 4.38729 20.4496 4.38729C19.9318 4.38729 19.4329 4.44361 18.9653 4.54788C18.0028 3.83348 16.6306 3.38672 15.1075 3.38672C13.8277 3.38672 12.6544 3.70213 11.7413 4.22671C11.2961 4.14254 10.8273 4.09759 10.3433 4.09759C7.43167 4.09759 5.07129 5.7244 5.07129 7.73116C5.07129 9.39931 6.70229 10.8049 8.92516 11.2318L10.2701 20.87ZM11.5423 26.63C11.3471 26.1676 11.2843 24.3898 11.2732 23.0127C11.2701 22.6255 11.2711 22.2699 11.2743 21.9842H10.2472C9.65175 24.5877 8.55911 29.8888 8.9521 30.2659C9.44334 30.7372 14.3596 32.6216 17.9769 32.6216C21.5942 32.6216 26.9055 30.1147 26.9055 30.1147C26.9412 29.8454 26.3241 24.6325 25.9668 21.9842H24.6596C24.6715 22.1277 24.6659 22.3077 24.66 22.4989C24.6539 22.6972 24.6474 22.9076 24.6596 23.1018C24.7534 24.5957 24.6761 26.4155 24.4484 26.63C24.1626 26.8993 22.811 27.5951 22.1709 27.9093C22.0369 27.7185 21.6171 27.3033 21.0098 27.1687C20.6907 27.0979 19.709 27.0331 18.6249 27.0043C18.5517 27.2474 18.3707 27.4609 17.9459 27.4609C17.4605 27.4609 17.3001 27.2322 17.2471 26.9891C16.2192 26.9955 15.3137 27.0465 15.0256 27.1687C14.454 27.4111 13.9538 27.7634 13.7752 27.9093C13.1351 27.7298 11.7924 27.2225 11.5423 26.63ZM25.9232 29.3966C25.9328 29.4894 25.9415 29.5764 25.9495 29.6571C25.8837 29.6855 25.8135 29.7155 25.7391 29.7471C25.1992 29.9759 24.4426 30.281 23.5773 30.5857C21.8143 31.2065 19.7208 31.7811 18.0964 31.7811C16.4348 31.7811 14.4129 31.3423 12.7095 30.8242C11.8664 30.5678 11.1244 30.299 10.5719 30.0702C10.3494 29.978 10.1639 29.8949 10.0187 29.8243C10.0234 29.725 10.0321 29.6055 10.0455 29.465C10.0981 28.915 10.2109 28.1672 10.3587 27.3265C10.4109 27.0296 10.4669 26.7239 10.5255 26.4145C10.5632 26.6927 10.6202 26.9894 10.717 27.2188C10.8787 27.6018 11.1671 27.8753 11.3955 28.0538C11.6393 28.2443 11.9156 28.4037 12.1744 28.5331C12.6923 28.7918 13.2513 28.9848 13.6183 29.0878L14.1303 29.2314L14.5425 28.8947C14.6608 28.7981 15.0664 28.5108 15.5208 28.3142L15.5208 28.3142C15.5319 28.3116 15.5647 28.3039 15.6269 28.2942C15.7311 28.278 15.8736 28.2625 16.0537 28.2492C16.2724 28.2331 16.5279 28.2216 16.8079 28.2143C16.8388 28.2443 16.8716 28.2736 16.9066 28.3022C17.2498 28.5819 17.6656 28.6774 18.0654 28.6774C18.4538 28.6774 18.8416 28.5768 19.1662 28.3238C19.2017 28.2962 19.2352 28.2677 19.2668 28.2385C19.5912 28.2513 19.8932 28.2671 20.1542 28.2849C20.5856 28.3143 20.8351 28.3448 20.9078 28.3609C21.0444 28.3912 21.1731 28.4567 21.2829 28.537C21.385 28.6116 21.4408 28.6769 21.4503 28.6881C21.4517 28.6897 21.4521 28.6902 21.4516 28.6894L21.9554 29.4069L22.7414 29.021C23.0707 28.8594 23.5819 28.6002 24.0513 28.3448C24.2855 28.2173 24.5177 28.0863 24.715 27.9658C24.8864 27.8611 25.1113 27.7174 25.2704 27.5675C25.4491 27.3991 25.5334 27.2089 25.5704 27.1151C25.6018 27.0354 25.6246 26.9572 25.6417 26.8871L25.6841 27.249C25.7812 28.0809 25.8655 28.8353 25.9232 29.3966ZM26.0007 30.2704C26.0009 30.2781 26.0009 30.2814 26.0008 30.2811C26.0008 30.2807 26.0007 30.2769 26.0007 30.2704Z" fill="black"/>
</mask>
<g mask="url(#mask0_168_1214)">
<rect x="-0.00683594" y="-1.1958" width="36" height="36" fill="black"/>
</g>
</svg>
