<svg width="245" height="52" viewBox="0 0 245 52" fill="none" xmlns="http://www.w3.org/2000/svg">
<rect x="0.5" y="0.5" width="244" height="51" rx="5.5" fill="white"/>
<rect x="0.5" y="0.5" width="244" height="51" rx="5.5" stroke="#FF6153"/>
<path fill-rule="evenodd" clip-rule="evenodd" d="M25.5 41.5C34.0604 41.5 41 34.5604 41 26C41 17.4396 34.0604 10.5 25.5 10.5C16.9396 10.5 10 17.4396 10 26C10 34.5604 16.9396 41.5 25.5 41.5ZM23.0928 26.456L27.4328 26.4559C28.7018 26.4559 29.7305 25.4149 29.7305 24.1309C29.7305 22.8468 28.7018 21.806 27.4328 21.806H23.0928V26.456ZM20.0293 18.7059H27.4328C30.3937 18.7059 32.794 21.1347 32.794 24.1309C32.794 27.127 30.3937 29.556 27.4328 29.556H23.0928V34.2059H20.0293V18.7059Z" fill="#FF6153"/>
<path d="M61.2778 11.6694H58.0303V13.1592H60.8735V14.2842H58.0303V17H56.6855V10.5312H61.2778V11.6694ZM66.6963 14.1699H63.5498V15.8354H67.1357V17H62.2271V10.5225H66.9775V11.6694H63.5498V13.0449H66.6963V14.1699ZM71.9829 15.6685H69.5967L69.1484 17H67.7334L70.0449 10.5225H71.5742L73.8682 17H72.4004L71.9829 15.6685ZM71.605 14.5522L70.7964 12.0034L69.9614 14.5522H71.605ZM78.7329 10.5225V11.6694H76.7949V17H75.4326V11.6694H73.4858V10.5225H78.7329ZM83.3604 14.5039V10.5225H84.7358V14.5039C84.7358 15.1924 84.6289 15.7285 84.415 16.1123C84.0166 16.8154 83.2563 17.167 82.1343 17.167C81.0122 17.167 80.2505 16.8154 79.8491 16.1123C79.6353 15.7285 79.5283 15.1924 79.5283 14.5039V10.5225H80.9038V14.5039C80.9038 14.9492 80.9565 15.2744 81.062 15.4795C81.2261 15.8428 81.5835 16.0244 82.1343 16.0244C82.6821 16.0244 83.0381 15.8428 83.2021 15.4795C83.3076 15.2744 83.3604 14.9492 83.3604 14.5039ZM88.7832 14.46H87.3857V17H86.063V10.5225H89.2402C89.6943 10.5312 90.043 10.5869 90.2861 10.6895C90.5322 10.792 90.7402 10.9429 90.9102 11.1421C91.0508 11.3062 91.1621 11.4878 91.2441 11.687C91.3262 11.8862 91.3672 12.1133 91.3672 12.3682C91.3672 12.6758 91.2896 12.979 91.1343 13.2778C90.979 13.5737 90.7227 13.7832 90.3652 13.9062C90.6641 14.0264 90.875 14.1978 90.998 14.4204C91.124 14.6401 91.187 14.9771 91.187 15.4312V15.8662C91.187 16.1621 91.1987 16.3628 91.2222 16.4683C91.2573 16.6353 91.3394 16.7583 91.4683 16.8374V17H89.9785C89.9375 16.8564 89.9082 16.7407 89.8906 16.6528C89.8555 16.4712 89.8364 16.2852 89.8335 16.0947L89.8247 15.4927C89.8188 15.0796 89.7427 14.8042 89.5962 14.6665C89.4526 14.5288 89.1816 14.46 88.7832 14.46ZM89.605 13.2822C89.8745 13.1592 90.0093 12.916 90.0093 12.5527C90.0093 12.1602 89.8789 11.8965 89.6182 11.7617C89.4717 11.6855 89.252 11.6475 88.959 11.6475H87.3857V13.3877H88.9194C89.2241 13.3877 89.4526 13.3525 89.605 13.2822ZM97.0449 14.1699H93.8984V15.8354H97.4844V17H92.5757V10.5225H97.3262V11.6694H93.8984V13.0449H97.0449V14.1699ZM101.33 17H98.5391V10.5225H101.33C101.731 10.5283 102.065 10.5752 102.332 10.6631C102.786 10.8125 103.153 11.0864 103.435 11.4849C103.66 11.8071 103.814 12.1558 103.896 12.5308C103.978 12.9058 104.019 13.2632 104.019 13.603C104.019 14.4644 103.846 15.1938 103.5 15.7915C103.032 16.5972 102.308 17 101.33 17ZM102.336 12.1748C102.128 11.8232 101.716 11.6475 101.101 11.6475H99.853V15.875H101.101C101.74 15.875 102.185 15.5601 102.437 14.9302C102.575 14.5845 102.644 14.1729 102.644 13.6953C102.644 13.0361 102.541 12.5293 102.336 12.1748ZM110.413 17.1802C109.487 17.1802 108.78 16.9282 108.291 16.4243C107.634 15.8062 107.306 14.9155 107.306 13.7524C107.306 12.5659 107.634 11.6753 108.291 11.0806C108.78 10.5767 109.487 10.3247 110.413 10.3247C111.339 10.3247 112.046 10.5767 112.536 11.0806C113.189 11.6753 113.516 12.5659 113.516 13.7524C113.516 14.9155 113.189 15.8062 112.536 16.4243C112.046 16.9282 111.339 17.1802 110.413 17.1802ZM111.692 15.4399C112.005 15.0444 112.162 14.4819 112.162 13.7524C112.162 13.0259 112.004 12.4648 111.688 12.0693C111.374 11.6709 110.949 11.4717 110.413 11.4717C109.877 11.4717 109.449 11.6694 109.13 12.0649C108.811 12.4604 108.651 13.0229 108.651 13.7524C108.651 14.4819 108.811 15.0444 109.13 15.4399C109.449 15.8354 109.877 16.0332 110.413 16.0332C110.949 16.0332 111.375 15.8354 111.692 15.4399ZM119.791 17H118.438L115.792 12.3989V17H114.531V10.5225H115.95L118.53 15.0444V10.5225H119.791V17Z" fill="#FF6153"/>
<path d="M64.0186 32.5654H60.8091V38H57.6714V22.8857H64.2544C65.772 22.8857 66.9819 23.2754 67.8843 24.0547C68.7866 24.834 69.2378 26.0405 69.2378 27.6743C69.2378 29.4585 68.7866 30.7197 67.8843 31.458C66.9819 32.1963 65.6934 32.5654 64.0186 32.5654ZM65.4951 29.4175C65.9053 29.0552 66.1104 28.481 66.1104 27.6948C66.1104 26.9087 65.9019 26.3481 65.4849 26.0132C65.0747 25.6782 64.4971 25.5107 63.752 25.5107H60.8091V29.9609H63.752C64.4971 29.9609 65.0781 29.7798 65.4951 29.4175ZM76.9897 29.52C75.814 29.52 75.0244 29.9028 74.6211 30.6685C74.3955 31.0991 74.2827 31.7622 74.2827 32.6577V38H71.3398V26.8232H74.1289V28.7715C74.5801 28.0264 74.9731 27.5171 75.3081 27.2437C75.855 26.7856 76.5659 26.5566 77.4409 26.5566C77.4956 26.5566 77.54 26.5601 77.5742 26.5669C77.6152 26.5669 77.7007 26.5703 77.8306 26.5771V29.5713C77.646 29.5508 77.4819 29.5371 77.3384 29.5303C77.1948 29.5234 77.0786 29.52 76.9897 29.52ZM88.874 28.2383C89.8174 29.4209 90.2891 30.8188 90.2891 32.4321C90.2891 34.0728 89.8174 35.4775 88.874 36.6465C87.9307 37.8086 86.4985 38.3896 84.5776 38.3896C82.6567 38.3896 81.2246 37.8086 80.2812 36.6465C79.3379 35.4775 78.8662 34.0728 78.8662 32.4321C78.8662 30.8188 79.3379 29.4209 80.2812 28.2383C81.2246 27.0557 82.6567 26.4644 84.5776 26.4644C86.4985 26.4644 87.9307 27.0557 88.874 28.2383ZM84.5674 28.9355C83.7129 28.9355 83.0532 29.2397 82.5884 29.8481C82.1304 30.4497 81.9014 31.311 81.9014 32.4321C81.9014 33.5532 82.1304 34.418 82.5884 35.0264C83.0532 35.6348 83.7129 35.939 84.5674 35.939C85.4219 35.939 86.0781 35.6348 86.5361 35.0264C86.9941 34.418 87.2231 33.5532 87.2231 32.4321C87.2231 31.311 86.9941 30.4497 86.5361 29.8481C86.0781 29.2397 85.4219 28.9355 84.5674 28.9355ZM102.563 22.9062V38H99.7227V36.4517C99.3057 37.1147 98.8306 37.5967 98.2974 37.8975C97.7642 38.1982 97.1011 38.3486 96.3081 38.3486C95.0024 38.3486 93.9019 37.8223 93.0063 36.7695C92.1177 35.71 91.6733 34.353 91.6733 32.6987C91.6733 30.7915 92.1108 29.291 92.9858 28.1973C93.8677 27.1035 95.0435 26.5566 96.5132 26.5566C97.1899 26.5566 97.7915 26.707 98.3179 27.0078C98.8442 27.3018 99.2715 27.7119 99.5996 28.2383V22.9062H102.563ZM94.688 32.4834C94.688 33.5156 94.8931 34.3394 95.3032 34.9546C95.7065 35.5767 96.3218 35.8877 97.1489 35.8877C97.9761 35.8877 98.605 35.5801 99.0356 34.9648C99.4663 34.3496 99.6816 33.5532 99.6816 32.5757C99.6816 31.2085 99.3364 30.231 98.646 29.6431C98.2222 29.2876 97.73 29.1099 97.1694 29.1099C96.3149 29.1099 95.686 29.4346 95.2827 30.084C94.8862 30.7266 94.688 31.5264 94.688 32.4834ZM112.396 36.4209C112.369 36.4551 112.301 36.5576 112.191 36.7285C112.082 36.8994 111.952 37.0498 111.802 37.1797C111.344 37.5898 110.899 37.8701 110.469 38.0205C110.045 38.1709 109.546 38.2461 108.972 38.2461C107.317 38.2461 106.203 37.6514 105.629 36.4619C105.308 35.8057 105.147 34.8384 105.147 33.5601V26.8232H108.141V33.5601C108.141 34.1958 108.216 34.6743 108.367 34.9956C108.633 35.563 109.156 35.8467 109.936 35.8467C110.934 35.8467 111.617 35.4434 111.986 34.6367C112.178 34.1992 112.273 33.6216 112.273 32.9038V26.8232H115.237V38H112.396V36.4209ZM127.736 30.8325H124.742C124.688 30.4155 124.547 30.0396 124.322 29.7046C123.994 29.2534 123.484 29.0278 122.794 29.0278C121.81 29.0278 121.136 29.5166 120.774 30.4941C120.583 31.0137 120.487 31.7041 120.487 32.5654C120.487 33.3857 120.583 34.0454 120.774 34.5444C121.123 35.4741 121.779 35.939 122.743 35.939C123.426 35.939 123.912 35.7544 124.199 35.3853C124.486 35.0161 124.66 34.5376 124.722 33.9497H127.706C127.637 34.8384 127.316 35.6792 126.742 36.4722C125.826 37.7505 124.469 38.3896 122.671 38.3896C120.873 38.3896 119.55 37.8564 118.703 36.79C117.855 35.7236 117.431 34.3394 117.431 32.6372C117.431 30.7163 117.899 29.2227 118.836 28.1562C119.772 27.0898 121.064 26.5566 122.712 26.5566C124.113 26.5566 125.258 26.8711 126.147 27.5C127.042 28.1289 127.572 29.2397 127.736 30.8325ZM134.873 35.9185V38.1025L133.489 38.1538C132.108 38.2017 131.165 37.9624 130.659 37.436C130.331 37.1011 130.167 36.585 130.167 35.8877V29.0073H128.608V26.9258H130.167V23.8086H133.058V26.9258H134.873V29.0073H133.058V34.9136C133.058 35.3716 133.116 35.6587 133.232 35.7749C133.349 35.8843 133.704 35.939 134.299 35.939C134.388 35.939 134.48 35.939 134.576 35.939C134.678 35.9321 134.777 35.9253 134.873 35.9185ZM151.843 38V31.2529H145.937V38H142.81V22.8857H145.937V28.6484H151.843V22.8857H154.981V38H151.843ZM164.938 36.4209C164.91 36.4551 164.842 36.5576 164.732 36.7285C164.623 36.8994 164.493 37.0498 164.343 37.1797C163.885 37.5898 163.44 37.8701 163.01 38.0205C162.586 38.1709 162.087 38.2461 161.513 38.2461C159.858 38.2461 158.744 37.6514 158.17 36.4619C157.849 35.8057 157.688 34.8384 157.688 33.5601V26.8232H160.682V33.5601C160.682 34.1958 160.757 34.6743 160.908 34.9956C161.174 35.563 161.697 35.8467 162.477 35.8467C163.475 35.8467 164.158 35.4434 164.527 34.6367C164.719 34.1992 164.814 33.6216 164.814 32.9038V26.8232H167.778V38H164.938V36.4209ZM175.868 28.9868C174.877 28.9868 174.197 29.4072 173.828 30.248C173.636 30.6924 173.541 31.2598 173.541 31.9502V38H170.628V26.8438H173.448V28.4741C173.824 27.8999 174.18 27.4863 174.515 27.2334C175.116 26.7822 175.878 26.5566 176.801 26.5566C177.957 26.5566 178.9 26.8608 179.631 27.4692C180.37 28.0708 180.739 29.0723 180.739 30.4736V38H177.745V31.2017C177.745 30.6138 177.666 30.1626 177.509 29.8481C177.222 29.2739 176.675 28.9868 175.868 28.9868ZM188.562 35.9185V38.1025L187.178 38.1538C185.797 38.2017 184.854 37.9624 184.348 37.436C184.02 37.1011 183.856 36.585 183.856 35.8877V29.0073H182.297V26.9258H183.856V23.8086H186.748V26.9258H188.562V29.0073H186.748V34.9136C186.748 35.3716 186.806 35.6587 186.922 35.7749C187.038 35.8843 187.394 35.939 187.988 35.939C188.077 35.939 188.169 35.939 188.265 35.939C188.368 35.9321 188.467 35.9253 188.562 35.9185Z" fill="#FF6153"/>
<path fill-rule="evenodd" clip-rule="evenodd" d="M225.502 21.5H214.499L220 11.5L225.502 21.5Z" fill="#FF6153"/>
<path d="M210.047 30.1685C209.831 29.9103 209.522 29.7812 209.12 29.7812C208.57 29.7812 208.195 29.9865 207.997 30.397C207.882 30.634 207.815 31.0106 207.793 31.5269H206.035C206.065 30.744 206.207 30.1113 206.46 29.6289C206.943 28.7106 207.8 28.2515 209.031 28.2515C210.005 28.2515 210.779 28.5223 211.354 29.064C211.93 29.6014 212.218 30.3145 212.218 31.2031C212.218 31.8844 212.015 32.4896 211.608 33.0186C211.342 33.3698 210.904 33.7612 210.294 34.1929L209.571 34.707C209.118 35.0286 208.807 35.2614 208.638 35.4053C208.473 35.5492 208.333 35.7163 208.219 35.9067H212.237V37.5H205.934C205.951 36.8398 206.092 36.2368 206.359 35.6909C206.617 35.0773 207.226 34.4277 208.187 33.7422C209.021 33.1455 209.56 32.7181 209.806 32.46C210.182 32.0579 210.371 31.6178 210.371 31.1396C210.371 30.7503 210.263 30.4266 210.047 30.1685ZM216.229 32.9297C216.009 32.9297 215.819 32.9572 215.658 33.0122C215.375 33.1138 215.161 33.3021 215.017 33.5771L213.392 33.501L214.04 28.4165H219.111V29.9526H215.347L215.017 31.9648C215.296 31.7829 215.514 31.6623 215.671 31.603C215.933 31.5057 216.253 31.457 216.629 31.457C217.391 31.457 218.056 31.7131 218.623 32.2251C219.19 32.7371 219.473 33.4819 219.473 34.4595C219.473 35.3101 219.2 36.0697 218.654 36.7383C218.108 37.4069 217.292 37.7412 216.204 37.7412C215.328 37.7412 214.609 37.5063 214.046 37.0366C213.483 36.5669 213.17 35.9004 213.106 35.0371H214.909C214.981 35.4307 215.119 35.7354 215.322 35.9512C215.525 36.1628 215.821 36.2686 216.21 36.2686C216.659 36.2686 217 36.112 217.232 35.7988C217.469 35.4814 217.588 35.0837 217.588 34.6055C217.588 34.1357 217.478 33.7401 217.258 33.4185C217.038 33.0926 216.695 32.9297 216.229 32.9297ZM226.798 34.104V35.5195H225.757V37.5H223.986V35.5195H220.343V33.939L223.726 28.353H225.757V34.104H226.798ZM221.682 34.104H223.986V30.1304L221.682 34.104ZM230.613 37.7666C229.924 37.7666 229.304 37.5635 228.753 37.1572C228.203 36.7467 227.888 36.1501 227.808 35.3672H229.61C229.653 35.638 229.767 35.8581 229.953 36.0273C230.139 36.1966 230.387 36.2812 230.696 36.2812C231.292 36.2812 231.711 35.9512 231.953 35.291C232.084 34.9271 232.166 34.396 232.2 33.6978C232.035 33.9051 231.86 34.0638 231.673 34.1738C231.335 34.377 230.918 34.4785 230.423 34.4785C229.691 34.4785 229.041 34.2267 228.474 33.7231C227.907 33.2153 227.624 32.4854 227.624 31.5332C227.624 30.5472 227.907 29.7495 228.474 29.1401C229.045 28.5265 229.786 28.2197 230.696 28.2197C232.097 28.2197 233.057 28.8397 233.578 30.0796C233.874 30.7821 234.022 31.7067 234.022 32.8535C234.022 33.9665 233.88 34.8953 233.597 35.6401C233.055 37.0578 232.061 37.7666 230.613 37.7666ZM229.979 29.9907C229.632 30.2616 229.458 30.7207 229.458 31.3682C229.458 31.9141 229.568 32.3245 229.788 32.5996C230.012 32.8704 230.355 33.0059 230.816 33.0059C231.066 33.0059 231.301 32.9339 231.521 32.79C231.931 32.5277 232.137 32.0728 232.137 31.4253C232.137 30.9048 232.014 30.4922 231.769 30.1875C231.527 29.8828 231.195 29.7305 230.772 29.7305C230.463 29.7305 230.199 29.8172 229.979 29.9907Z" fill="#FF6153"/>
</svg>
