<svg width="31" height="32" viewBox="0 0 31 32" fill="none" xmlns="http://www.w3.org/2000/svg">
<path fill-rule="evenodd" clip-rule="evenodd" d="M15.5 31.5C24.0604 31.5 31 24.5604 31 16C31 7.43961 24.0604 0.5 15.5 0.5C6.93961 0.5 0 7.43961 0 16C0 24.5604 6.93961 31.5 15.5 31.5ZM13.0928 16.456L17.4328 16.4559C18.7018 16.4559 19.7305 15.4149 19.7305 14.1309C19.7305 12.8468 18.7018 11.806 17.4328 11.806H13.0928V16.456ZM10.0293 8.70587H17.4328C20.3937 8.70587 22.794 11.1347 22.794 14.1309C22.794 17.127 20.3937 19.556 17.4328 19.556H13.0928V24.2059H10.0293V8.70587Z" fill="#FF6153"/>
</svg>
