<svg width="142" height="48" viewBox="0 0 142 48" fill="none" xmlns="http://www.w3.org/2000/svg">
<rect x="0.5" y="0.5" width="141" height="47" rx="5.5" fill="white"/>
<rect x="0.5" y="0.5" width="141" height="47" rx="5.5" stroke="#FF6154"/>
<g clip-path="url(#clip0_173_2147)">
<path d="M24.8075 20.3076L30.346 25.8461H19.269L24.8075 20.3076Z" fill="#FF6154"/>
</g>
<path d="M45.2067 25.4901V24.1776H47.6298C48.2145 24.1776 48.6689 24.0282 48.9928 23.7296C49.3167 23.4267 49.4787 23.0018 49.4787 22.4549V22.4423C49.4787 21.8912 49.3167 21.4663 48.9928 21.1677C48.6689 20.869 48.2145 20.7197 47.6298 20.7197H45.2067V19.3945H48.0273C48.6457 19.3945 49.1863 19.5207 49.649 19.7731C50.1118 20.0255 50.4736 20.381 50.7344 20.8395C50.9952 21.2939 51.1256 21.826 51.1256 22.436V22.4486C51.1256 23.0544 50.9952 23.5865 50.7344 24.0451C50.4736 24.4994 50.1118 24.8549 49.649 25.1115C49.1863 25.3639 48.6457 25.4901 48.0273 25.4901H45.2067ZM44.3927 28.5V19.3945H46.0207V28.5H44.3927ZM52.7599 28.5V21.6031H54.3311V22.6632H54.4384C54.5562 22.293 54.7665 22.0048 55.0694 21.7987C55.3765 21.5925 55.7572 21.4895 56.2115 21.4895C56.3293 21.4895 56.445 21.4979 56.5586 21.5147C56.6764 21.5273 56.7731 21.5442 56.8489 21.5652V22.9724C56.7227 22.9429 56.5944 22.9219 56.4639 22.9093C56.3377 22.8924 56.2052 22.884 56.0664 22.884C55.7172 22.884 55.4123 22.9492 55.1514 23.0796C54.8906 23.21 54.6887 23.3972 54.5457 23.6412C54.4026 23.881 54.3311 24.165 54.3311 24.4931V28.5H52.7599ZM60.9378 28.6388C60.2521 28.6388 59.6611 28.4958 59.1647 28.2097C58.6683 27.9195 58.2855 27.5072 58.0162 26.973C57.7512 26.4387 57.6187 25.7993 57.6187 25.0547V25.0421C57.6187 24.3059 57.7533 23.6707 58.0225 23.1364C58.2918 22.598 58.6725 22.1857 59.1647 21.8996C59.6611 21.6136 60.2521 21.4706 60.9378 21.4706C61.6235 21.4706 62.2124 21.6136 62.7046 21.8996C63.201 22.1857 63.5838 22.5959 63.8531 23.1301C64.1223 23.6644 64.2569 24.3017 64.2569 25.0421V25.0547C64.2569 25.7993 64.1223 26.4387 63.8531 26.973C63.588 27.5072 63.2073 27.9195 62.7109 28.2097C62.2187 28.4958 61.6277 28.6388 60.9378 28.6388ZM60.9378 27.3642C61.2996 27.3642 61.6067 27.2737 61.8591 27.0928C62.1157 26.9078 62.3113 26.6448 62.4459 26.3041C62.5805 25.9591 62.6478 25.5448 62.6478 25.061V25.0484C62.6478 24.5604 62.5805 24.146 62.4459 23.8053C62.3113 23.4603 62.1157 23.1974 61.8591 23.0165C61.6067 22.8314 61.2996 22.7389 60.9378 22.7389C60.576 22.7389 60.2668 22.8314 60.0102 23.0165C59.7536 23.1974 59.558 23.4603 59.4234 23.8053C59.2888 24.146 59.2215 24.5604 59.2215 25.0484V25.061C59.2215 25.5448 59.2888 25.9591 59.4234 26.3041C59.558 26.649 59.7515 26.912 60.0039 27.0928C60.2605 27.2737 60.5718 27.3642 60.9378 27.3642ZM68.3206 28.6136C67.7485 28.6136 67.25 28.4706 66.8251 28.1845C66.4002 27.8942 66.0721 27.482 65.8407 26.9477C65.6094 26.4135 65.4937 25.7846 65.4937 25.061V25.0484C65.4937 24.3164 65.6073 23.6854 65.8344 23.1553C66.0658 22.6211 66.3918 22.2109 66.8125 21.9249C67.2374 21.6346 67.7401 21.4895 68.3206 21.4895C68.6361 21.4895 68.9306 21.54 69.204 21.6409C69.4775 21.7377 69.7172 21.8765 69.9234 22.0574C70.1337 22.2383 70.2978 22.4528 70.4156 22.701H70.5291V18.9339H72.0941V28.5H70.5291V27.421H70.4156C70.2894 27.6692 70.1232 27.8837 69.9171 28.0646C69.7151 28.2413 69.4796 28.378 69.2103 28.4748C68.9411 28.5673 68.6445 28.6136 68.3206 28.6136ZM68.8128 27.2885C69.1704 27.2885 69.4775 27.2001 69.7341 27.0234C69.9949 26.8425 70.1947 26.5859 70.3335 26.2536C70.4766 25.9171 70.5481 25.5195 70.5481 25.061V25.0484C70.5481 24.5856 70.4766 24.1881 70.3335 23.8558C70.1947 23.5234 69.9949 23.2668 69.7341 23.0859C69.4775 22.905 69.1704 22.8146 68.8128 22.8146C68.4594 22.8146 68.1523 22.905 67.8915 23.0859C67.6349 23.2626 67.4372 23.5192 67.2984 23.8558C67.1596 24.1881 67.0901 24.5856 67.0901 25.0484V25.061C67.0901 25.5237 67.1596 25.9213 67.2984 26.2536C67.4372 26.5859 67.6349 26.8425 67.8915 27.0234C68.1481 27.2001 68.4552 27.2885 68.8128 27.2885ZM76.3597 28.6388C75.8465 28.6388 75.4153 28.54 75.0661 28.3422C74.7169 28.1403 74.454 27.848 74.2773 27.4651C74.1007 27.0781 74.0123 26.6112 74.0123 26.0643V21.6031H75.5835V25.7046C75.5835 26.2389 75.6887 26.6406 75.899 26.9099C76.1094 27.1791 76.4522 27.3137 76.9276 27.3137C77.18 27.3137 77.4029 27.2758 77.5965 27.2001C77.7942 27.1202 77.9582 27.0066 78.0886 26.8594C78.219 26.7121 78.3179 26.5355 78.3852 26.3293C78.4525 26.119 78.4862 25.8834 78.4862 25.6226V21.6031H80.0574V28.5H78.4862V27.4525H78.3789C78.2737 27.6965 78.1265 27.909 77.9372 28.0898C77.7479 28.2665 77.5207 28.4032 77.2557 28.5C76.9907 28.5925 76.692 28.6388 76.3597 28.6388ZM84.9351 28.6388C84.241 28.6388 83.6478 28.4958 83.1556 28.2097C82.6635 27.9237 82.287 27.5114 82.0261 26.973C81.7653 26.4345 81.6349 25.7909 81.6349 25.0421V25.0294C81.6349 24.2849 81.7653 23.6475 82.0261 23.1175C82.287 22.5874 82.6635 22.1815 83.1556 21.8996C83.6478 21.6136 84.2389 21.4706 84.9288 21.4706C85.5219 21.4706 86.0309 21.5736 86.4558 21.7797C86.8849 21.9817 87.2236 22.2635 87.4718 22.6253C87.7242 22.9829 87.8798 23.4014 87.9387 23.881V23.9063H86.4558L86.4495 23.8873C86.378 23.5508 86.2139 23.2752 85.9573 23.0607C85.7049 22.8462 85.3642 22.7389 84.9351 22.7389C84.5775 22.7389 84.2704 22.8293 84.0138 23.0102C83.7614 23.1911 83.5679 23.4519 83.4333 23.7927C83.2987 24.1334 83.2314 24.5457 83.2314 25.0294V25.0421C83.2314 25.53 83.2987 25.9486 83.4333 26.2978C83.5721 26.6427 83.7677 26.9078 84.0201 27.0928C84.2725 27.2737 84.5775 27.3642 84.9351 27.3642C85.3431 27.3642 85.6713 27.2716 85.9195 27.0865C86.1719 26.9014 86.3465 26.628 86.4432 26.2662L86.4558 26.241L87.9324 26.2347L87.9261 26.2915C87.8504 26.7584 87.6863 27.1686 87.4339 27.5219C87.1857 27.8753 86.8534 28.1508 86.4369 28.3486C86.0204 28.5421 85.5198 28.6388 84.9351 28.6388ZM92.2359 28.5316C91.445 28.5316 90.875 28.3864 90.5258 28.0962C90.1767 27.8059 90.0021 27.3305 90.0021 26.6701V22.8209H88.9294V21.6031H90.0021V19.912H91.5986V21.6031H93.0499V22.8209H91.5986V26.2978C91.5986 26.6385 91.6701 26.8888 91.8131 27.0487C91.9603 27.2043 92.1959 27.2822 92.5198 27.2822C92.6334 27.2822 92.726 27.28 92.7975 27.2758C92.8732 27.2674 92.9573 27.259 93.0499 27.2506V28.4621C92.9405 28.4832 92.8143 28.5 92.6713 28.5126C92.5325 28.5252 92.3873 28.5316 92.2359 28.5316ZM98.2305 28.5V19.3945H99.8585V23.1806H104.288V19.3945H105.91V28.5H104.288V24.5499H99.8585V28.5H98.2305ZM110.283 28.6388C109.77 28.6388 109.338 28.54 108.989 28.3422C108.64 28.1403 108.377 27.848 108.2 27.4651C108.024 27.0781 107.935 26.6112 107.935 26.0643V21.6031H109.507V25.7046C109.507 26.2389 109.612 26.6406 109.822 26.9099C110.032 27.1791 110.375 27.3137 110.851 27.3137C111.103 27.3137 111.326 27.2758 111.52 27.2001C111.717 27.1202 111.881 27.0066 112.012 26.8594C112.142 26.7121 112.241 26.5355 112.308 26.3293C112.376 26.119 112.409 25.8834 112.409 25.6226V21.6031H113.98V28.5H112.409V27.4525H112.302C112.197 27.6965 112.05 27.909 111.86 28.0898C111.671 28.2665 111.444 28.4032 111.179 28.5C110.914 28.5925 110.615 28.6388 110.283 28.6388ZM115.899 28.5V21.6031H117.47V22.6632H117.577C117.741 22.2888 117.989 21.9964 118.322 21.7861C118.654 21.5757 119.069 21.4706 119.565 21.4706C120.335 21.4706 120.924 21.6935 121.332 22.1394C121.74 22.5853 121.944 23.2184 121.944 24.0388V28.5H120.373V24.4047C120.373 23.8663 120.259 23.4624 120.032 23.1932C119.809 22.924 119.46 22.7894 118.984 22.7894C118.673 22.7894 118.404 22.8588 118.177 22.9976C117.95 23.1364 117.775 23.332 117.653 23.5844C117.531 23.8368 117.47 24.1355 117.47 24.4805V28.5H115.899ZM126.512 28.5316C125.721 28.5316 125.151 28.3864 124.802 28.0962C124.453 27.8059 124.279 27.3305 124.279 26.6701V22.8209H123.206V21.6031H124.279V19.912H125.875V21.6031H127.326V22.8209H125.875V26.2978C125.875 26.6385 125.947 26.8888 126.09 27.0487C126.237 27.2043 126.472 27.2822 126.796 27.2822C126.91 27.2822 127.002 27.28 127.074 27.2758C127.15 27.2674 127.234 27.259 127.326 27.2506V28.4621C127.217 28.4832 127.091 28.5 126.948 28.5126C126.809 28.5252 126.664 28.5316 126.512 28.5316Z" fill="#FF6154"/>
<defs>
<clipPath id="clip0_173_2147">
<rect width="22.1538" height="22.1538" fill="white" transform="translate(13.731 12.9229)"/>
</clipPath>
</defs>
</svg>
