<svg width="245" height="48" viewBox="0 0 245 48" fill="none" xmlns="http://www.w3.org/2000/svg">
<rect x="0.5" y="0.5" width="244" height="47" rx="5.5" fill="white"/>
<rect x="0.5" y="0.5" width="244" height="47" rx="5.5" stroke="#FF6153"/>
<path fill-rule="evenodd" clip-rule="evenodd" d="M25.5 39.5C34.0604 39.5 41 32.5604 41 24C41 15.4396 34.0604 8.5 25.5 8.5C16.9396 8.5 10 15.4396 10 24C10 32.5604 16.9396 39.5 25.5 39.5ZM23.0928 24.456L27.4328 24.4559C28.7018 24.4559 29.7305 23.4149 29.7305 22.1309C29.7305 20.8468 28.7018 19.806 27.4328 19.806H23.0928V24.456ZM20.0293 16.7059H27.4328C30.3937 16.7059 32.794 19.1347 32.794 22.1309C32.794 25.127 30.3937 27.556 27.4328 27.556H23.0928V32.2059H20.0293V16.7059Z" fill="#FF6153"/>
<path d="M61.2778 9.66943H58.0303V11.1592H60.8735V12.2842H58.0303V15H56.6855V8.53125H61.2778V9.66943ZM66.6963 12.1699H63.5498V13.8354H67.1357V15H62.2271V8.52246H66.9775V9.66943H63.5498V11.0449H66.6963V12.1699ZM71.9829 13.6685H69.5967L69.1484 15H67.7334L70.0449 8.52246H71.5742L73.8682 15H72.4004L71.9829 13.6685ZM71.605 12.5522L70.7964 10.0034L69.9614 12.5522H71.605ZM78.7329 8.52246V9.66943H76.7949V15H75.4326V9.66943H73.4858V8.52246H78.7329ZM83.3604 12.5039V8.52246H84.7358V12.5039C84.7358 13.1924 84.6289 13.7285 84.415 14.1123C84.0166 14.8154 83.2563 15.167 82.1343 15.167C81.0122 15.167 80.2505 14.8154 79.8491 14.1123C79.6353 13.7285 79.5283 13.1924 79.5283 12.5039V8.52246H80.9038V12.5039C80.9038 12.9492 80.9565 13.2744 81.062 13.4795C81.2261 13.8428 81.5835 14.0244 82.1343 14.0244C82.6821 14.0244 83.0381 13.8428 83.2021 13.4795C83.3076 13.2744 83.3604 12.9492 83.3604 12.5039ZM88.7832 12.46H87.3857V15H86.063V8.52246H89.2402C89.6943 8.53125 90.043 8.58691 90.2861 8.68945C90.5322 8.79199 90.7402 8.94287 90.9102 9.14209C91.0508 9.30615 91.1621 9.48779 91.2441 9.68701C91.3262 9.88623 91.3672 10.1133 91.3672 10.3682C91.3672 10.6758 91.2896 10.979 91.1343 11.2778C90.979 11.5737 90.7227 11.7832 90.3652 11.9062C90.6641 12.0264 90.875 12.1978 90.998 12.4204C91.124 12.6401 91.187 12.9771 91.187 13.4312V13.8662C91.187 14.1621 91.1987 14.3628 91.2222 14.4683C91.2573 14.6353 91.3394 14.7583 91.4683 14.8374V15H89.9785C89.9375 14.8564 89.9082 14.7407 89.8906 14.6528C89.8555 14.4712 89.8364 14.2852 89.8335 14.0947L89.8247 13.4927C89.8188 13.0796 89.7427 12.8042 89.5962 12.6665C89.4526 12.5288 89.1816 12.46 88.7832 12.46ZM89.605 11.2822C89.8745 11.1592 90.0093 10.916 90.0093 10.5527C90.0093 10.1602 89.8789 9.89648 89.6182 9.76172C89.4717 9.68555 89.252 9.64746 88.959 9.64746H87.3857V11.3877H88.9194C89.2241 11.3877 89.4526 11.3525 89.605 11.2822ZM97.0449 12.1699H93.8984V13.8354H97.4844V15H92.5757V8.52246H97.3262V9.66943H93.8984V11.0449H97.0449V12.1699ZM101.33 15H98.5391V8.52246H101.33C101.731 8.52832 102.065 8.5752 102.332 8.66309C102.786 8.8125 103.153 9.08643 103.435 9.48486C103.66 9.80713 103.814 10.1558 103.896 10.5308C103.978 10.9058 104.019 11.2632 104.019 11.603C104.019 12.4644 103.846 13.1938 103.5 13.7915C103.032 14.5972 102.308 15 101.33 15ZM102.336 10.1748C102.128 9.82324 101.716 9.64746 101.101 9.64746H99.853V13.875H101.101C101.74 13.875 102.185 13.5601 102.437 12.9302C102.575 12.5845 102.644 12.1729 102.644 11.6953C102.644 11.0361 102.541 10.5293 102.336 10.1748ZM110.413 15.1802C109.487 15.1802 108.78 14.9282 108.291 14.4243C107.634 13.8062 107.306 12.9155 107.306 11.7524C107.306 10.5659 107.634 9.67529 108.291 9.08057C108.78 8.57666 109.487 8.32471 110.413 8.32471C111.339 8.32471 112.046 8.57666 112.536 9.08057C113.189 9.67529 113.516 10.5659 113.516 11.7524C113.516 12.9155 113.189 13.8062 112.536 14.4243C112.046 14.9282 111.339 15.1802 110.413 15.1802ZM111.692 13.4399C112.005 13.0444 112.162 12.4819 112.162 11.7524C112.162 11.0259 112.004 10.4648 111.688 10.0693C111.374 9.6709 110.949 9.47168 110.413 9.47168C109.877 9.47168 109.449 9.66943 109.13 10.0649C108.811 10.4604 108.651 11.0229 108.651 11.7524C108.651 12.4819 108.811 13.0444 109.13 13.4399C109.449 13.8354 109.877 14.0332 110.413 14.0332C110.949 14.0332 111.375 13.8354 111.692 13.4399ZM119.791 15H118.438L115.792 10.3989V15H114.531V8.52246H115.95L118.53 13.0444V8.52246H119.791V15Z" fill="#FF6153"/>
<path d="M64.0186 30.5654H60.8091V36H57.6714V20.8857H64.2544C65.772 20.8857 66.9819 21.2754 67.8843 22.0547C68.7866 22.834 69.2378 24.0405 69.2378 25.6743C69.2378 27.4585 68.7866 28.7197 67.8843 29.458C66.9819 30.1963 65.6934 30.5654 64.0186 30.5654ZM65.4951 27.4175C65.9053 27.0552 66.1104 26.481 66.1104 25.6948C66.1104 24.9087 65.9019 24.3481 65.4849 24.0132C65.0747 23.6782 64.4971 23.5107 63.752 23.5107H60.8091V27.9609H63.752C64.4971 27.9609 65.0781 27.7798 65.4951 27.4175ZM76.9897 27.52C75.814 27.52 75.0244 27.9028 74.6211 28.6685C74.3955 29.0991 74.2827 29.7622 74.2827 30.6577V36H71.3398V24.8232H74.1289V26.7715C74.5801 26.0264 74.9731 25.5171 75.3081 25.2437C75.855 24.7856 76.5659 24.5566 77.4409 24.5566C77.4956 24.5566 77.54 24.5601 77.5742 24.5669C77.6152 24.5669 77.7007 24.5703 77.8306 24.5771V27.5713C77.646 27.5508 77.4819 27.5371 77.3384 27.5303C77.1948 27.5234 77.0786 27.52 76.9897 27.52ZM88.874 26.2383C89.8174 27.4209 90.2891 28.8188 90.2891 30.4321C90.2891 32.0728 89.8174 33.4775 88.874 34.6465C87.9307 35.8086 86.4985 36.3896 84.5776 36.3896C82.6567 36.3896 81.2246 35.8086 80.2812 34.6465C79.3379 33.4775 78.8662 32.0728 78.8662 30.4321C78.8662 28.8188 79.3379 27.4209 80.2812 26.2383C81.2246 25.0557 82.6567 24.4644 84.5776 24.4644C86.4985 24.4644 87.9307 25.0557 88.874 26.2383ZM84.5674 26.9355C83.7129 26.9355 83.0532 27.2397 82.5884 27.8481C82.1304 28.4497 81.9014 29.311 81.9014 30.4321C81.9014 31.5532 82.1304 32.418 82.5884 33.0264C83.0532 33.6348 83.7129 33.939 84.5674 33.939C85.4219 33.939 86.0781 33.6348 86.5361 33.0264C86.9941 32.418 87.2231 31.5532 87.2231 30.4321C87.2231 29.311 86.9941 28.4497 86.5361 27.8481C86.0781 27.2397 85.4219 26.9355 84.5674 26.9355ZM102.563 20.9062V36H99.7227V34.4517C99.3057 35.1147 98.8306 35.5967 98.2974 35.8975C97.7642 36.1982 97.1011 36.3486 96.3081 36.3486C95.0024 36.3486 93.9019 35.8223 93.0063 34.7695C92.1177 33.71 91.6733 32.353 91.6733 30.6987C91.6733 28.7915 92.1108 27.291 92.9858 26.1973C93.8677 25.1035 95.0435 24.5566 96.5132 24.5566C97.1899 24.5566 97.7915 24.707 98.3179 25.0078C98.8442 25.3018 99.2715 25.7119 99.5996 26.2383V20.9062H102.563ZM94.688 30.4834C94.688 31.5156 94.8931 32.3394 95.3032 32.9546C95.7065 33.5767 96.3218 33.8877 97.1489 33.8877C97.9761 33.8877 98.605 33.5801 99.0356 32.9648C99.4663 32.3496 99.6816 31.5532 99.6816 30.5757C99.6816 29.2085 99.3364 28.231 98.646 27.6431C98.2222 27.2876 97.73 27.1099 97.1694 27.1099C96.3149 27.1099 95.686 27.4346 95.2827 28.084C94.8862 28.7266 94.688 29.5264 94.688 30.4834ZM112.396 34.4209C112.369 34.4551 112.301 34.5576 112.191 34.7285C112.082 34.8994 111.952 35.0498 111.802 35.1797C111.344 35.5898 110.899 35.8701 110.469 36.0205C110.045 36.1709 109.546 36.2461 108.972 36.2461C107.317 36.2461 106.203 35.6514 105.629 34.4619C105.308 33.8057 105.147 32.8384 105.147 31.5601V24.8232H108.141V31.5601C108.141 32.1958 108.216 32.6743 108.367 32.9956C108.633 33.563 109.156 33.8467 109.936 33.8467C110.934 33.8467 111.617 33.4434 111.986 32.6367C112.178 32.1992 112.273 31.6216 112.273 30.9038V24.8232H115.237V36H112.396V34.4209ZM127.736 28.8325H124.742C124.688 28.4155 124.547 28.0396 124.322 27.7046C123.994 27.2534 123.484 27.0278 122.794 27.0278C121.81 27.0278 121.136 27.5166 120.774 28.4941C120.583 29.0137 120.487 29.7041 120.487 30.5654C120.487 31.3857 120.583 32.0454 120.774 32.5444C121.123 33.4741 121.779 33.939 122.743 33.939C123.426 33.939 123.912 33.7544 124.199 33.3853C124.486 33.0161 124.66 32.5376 124.722 31.9497H127.706C127.637 32.8384 127.316 33.6792 126.742 34.4722C125.826 35.7505 124.469 36.3896 122.671 36.3896C120.873 36.3896 119.55 35.8564 118.703 34.79C117.855 33.7236 117.431 32.3394 117.431 30.6372C117.431 28.7163 117.899 27.2227 118.836 26.1562C119.772 25.0898 121.064 24.5566 122.712 24.5566C124.113 24.5566 125.258 24.8711 126.147 25.5C127.042 26.1289 127.572 27.2397 127.736 28.8325ZM134.873 33.9185V36.1025L133.489 36.1538C132.108 36.2017 131.165 35.9624 130.659 35.436C130.331 35.1011 130.167 34.585 130.167 33.8877V27.0073H128.608V24.9258H130.167V21.8086H133.058V24.9258H134.873V27.0073H133.058V32.9136C133.058 33.3716 133.116 33.6587 133.232 33.7749C133.349 33.8843 133.704 33.939 134.299 33.939C134.388 33.939 134.48 33.939 134.576 33.939C134.678 33.9321 134.777 33.9253 134.873 33.9185ZM151.843 36V29.2529H145.937V36H142.81V20.8857H145.937V26.6484H151.843V20.8857H154.981V36H151.843ZM164.938 34.4209C164.91 34.4551 164.842 34.5576 164.732 34.7285C164.623 34.8994 164.493 35.0498 164.343 35.1797C163.885 35.5898 163.44 35.8701 163.01 36.0205C162.586 36.1709 162.087 36.2461 161.513 36.2461C159.858 36.2461 158.744 35.6514 158.17 34.4619C157.849 33.8057 157.688 32.8384 157.688 31.5601V24.8232H160.682V31.5601C160.682 32.1958 160.757 32.6743 160.908 32.9956C161.174 33.563 161.697 33.8467 162.477 33.8467C163.475 33.8467 164.158 33.4434 164.527 32.6367C164.719 32.1992 164.814 31.6216 164.814 30.9038V24.8232H167.778V36H164.938V34.4209ZM175.868 26.9868C174.877 26.9868 174.197 27.4072 173.828 28.248C173.636 28.6924 173.541 29.2598 173.541 29.9502V36H170.628V24.8438H173.448V26.4741C173.824 25.8999 174.18 25.4863 174.515 25.2334C175.116 24.7822 175.878 24.5566 176.801 24.5566C177.957 24.5566 178.9 24.8608 179.631 25.4692C180.37 26.0708 180.739 27.0723 180.739 28.4736V36H177.745V29.2017C177.745 28.6138 177.666 28.1626 177.509 27.8481C177.222 27.2739 176.675 26.9868 175.868 26.9868ZM188.562 33.9185V36.1025L187.178 36.1538C185.797 36.2017 184.854 35.9624 184.348 35.436C184.02 35.1011 183.856 34.585 183.856 33.8877V27.0073H182.297V24.9258H183.856V21.8086H186.748V24.9258H188.562V27.0073H186.748V32.9136C186.748 33.3716 186.806 33.6587 186.922 33.7749C187.038 33.8843 187.394 33.939 187.988 33.939C188.077 33.939 188.169 33.939 188.265 33.939C188.368 33.9321 188.467 33.9253 188.562 33.9185Z" fill="#FF6153"/>
<path fill-rule="evenodd" clip-rule="evenodd" d="M225.501 19.5H214.499L220 9.5L225.501 19.5Z" fill="#FF6153"/>
<path d="M210.047 28.1685C209.831 27.9103 209.522 27.7812 209.12 27.7812C208.57 27.7812 208.195 27.9865 207.997 28.397C207.882 28.634 207.815 29.0106 207.793 29.5269H206.035C206.065 28.744 206.207 28.1113 206.46 27.6289C206.943 26.7106 207.8 26.2515 209.031 26.2515C210.005 26.2515 210.779 26.5223 211.354 27.064C211.93 27.6014 212.218 28.3145 212.218 29.2031C212.218 29.8844 212.015 30.4896 211.608 31.0186C211.342 31.3698 210.904 31.7612 210.294 32.1929L209.571 32.707C209.118 33.0286 208.807 33.2614 208.638 33.4053C208.473 33.5492 208.333 33.7163 208.219 33.9067H212.237V35.5H205.934C205.951 34.8398 206.092 34.2368 206.359 33.6909C206.617 33.0773 207.226 32.4277 208.187 31.7422C209.021 31.1455 209.56 30.7181 209.806 30.46C210.182 30.0579 210.371 29.6178 210.371 29.1396C210.371 28.7503 210.263 28.4266 210.047 28.1685ZM216.229 30.9297C216.009 30.9297 215.819 30.9572 215.658 31.0122C215.375 31.1138 215.161 31.3021 215.017 31.5771L213.392 31.501L214.04 26.4165H219.111V27.9526H215.347L215.017 29.9648C215.296 29.7829 215.514 29.6623 215.671 29.603C215.933 29.5057 216.253 29.457 216.629 29.457C217.391 29.457 218.056 29.7131 218.623 30.2251C219.19 30.7371 219.473 31.4819 219.473 32.4595C219.473 33.3101 219.2 34.0697 218.654 34.7383C218.108 35.4069 217.292 35.7412 216.204 35.7412C215.328 35.7412 214.609 35.5063 214.046 35.0366C213.483 34.5669 213.17 33.9004 213.106 33.0371H214.909C214.981 33.4307 215.119 33.7354 215.322 33.9512C215.525 34.1628 215.821 34.2686 216.21 34.2686C216.659 34.2686 217 34.112 217.232 33.7988C217.469 33.4814 217.588 33.0837 217.588 32.6055C217.588 32.1357 217.478 31.7401 217.258 31.4185C217.038 31.0926 216.695 30.9297 216.229 30.9297ZM226.798 32.104V33.5195H225.757V35.5H223.986V33.5195H220.343V31.939L223.726 26.353H225.757V32.104H226.798ZM221.682 32.104H223.986V28.1304L221.682 32.104ZM230.613 35.7666C229.924 35.7666 229.304 35.5635 228.753 35.1572C228.203 34.7467 227.888 34.1501 227.808 33.3672H229.61C229.653 33.638 229.767 33.8581 229.953 34.0273C230.139 34.1966 230.387 34.2812 230.696 34.2812C231.292 34.2812 231.711 33.9512 231.953 33.291C232.084 32.9271 232.166 32.396 232.2 31.6978C232.035 31.9051 231.86 32.0638 231.673 32.1738C231.335 32.377 230.918 32.4785 230.423 32.4785C229.691 32.4785 229.041 32.2267 228.474 31.7231C227.907 31.2153 227.624 30.4854 227.624 29.5332C227.624 28.5472 227.907 27.7495 228.474 27.1401C229.045 26.5265 229.786 26.2197 230.696 26.2197C232.097 26.2197 233.057 26.8397 233.578 28.0796C233.874 28.7821 234.022 29.7067 234.022 30.8535C234.022 31.9665 233.88 32.8953 233.597 33.6401C233.055 35.0578 232.061 35.7666 230.613 35.7666ZM229.979 27.9907C229.632 28.2616 229.458 28.7207 229.458 29.3682C229.458 29.9141 229.568 30.3245 229.788 30.5996C230.012 30.8704 230.355 31.0059 230.816 31.0059C231.066 31.0059 231.301 30.9339 231.521 30.79C231.931 30.5277 232.137 30.0728 232.137 29.4253C232.137 28.9048 232.014 28.4922 231.769 28.1875C231.527 27.8828 231.195 27.7305 230.772 27.7305C230.463 27.7305 230.199 27.8172 229.979 27.9907Z" fill="#FF6153"/>
</svg>
