<svg width="20" height="20" viewBox="0 0 20 20" fill="none" xmlns="http://www.w3.org/2000/svg">
<g clip-path="url(#clip0_163_576)">
<path d="M10.9655 1.03696L13.2213 5.60768C13.3781 5.92557 13.6814 6.14585 14.0323 6.19674L19.0765 6.92974C19.9601 7.05824 20.3126 8.14376 19.6735 8.76662L16.0235 12.3244C15.7699 12.5718 15.6539 12.9285 15.714 13.2777L16.5755 18.3015C16.7265 19.1813 15.8028 19.8521 15.0127 19.437L10.5012 17.0653C10.1875 16.9005 9.81243 16.9005 9.4987 17.0653L4.98723 19.437C4.19708 19.8526 3.27342 19.1813 3.42444 18.3015L4.28594 13.2777C4.34601 12.9285 4.23003 12.5718 3.97638 12.3244L0.326404 8.76662C-0.312728 8.14334 0.0397958 7.05782 0.9234 6.92974L5.96762 6.19674C6.31848 6.14585 6.62177 5.92557 6.77864 5.60768L9.03437 1.03696C9.42903 0.236377 10.5705 0.236377 10.9655 1.03696Z" fill="#28D764"/>
</g>
<defs>
<clipPath id="clip0_163_576">
<rect width="20" height="20" fill="white"/>
</clipPath>
</defs>
</svg>
