<svg width="20" height="20" viewBox="0 0 20 20" fill="none" xmlns="http://www.w3.org/2000/svg">
<path d="M19.1663 2.50057C18.3683 3.06347 17.4848 3.49399 16.5497 3.77557C16.0478 3.19849 15.3808 2.78948 14.6389 2.60384C13.897 2.4182 13.1159 2.4649 12.4014 2.73761C11.6869 3.01033 11.0734 3.4959 10.6438 4.12866C10.2143 4.76143 9.98942 5.51085 9.99967 6.27557V7.1089C8.5352 7.14687 7.08407 6.82208 5.77552 6.16344C4.46696 5.5048 3.34161 4.53276 2.49967 3.3339C2.49967 3.3339 -0.833659 10.8339 6.66634 14.1672C4.95011 15.3322 2.90564 15.9163 0.833008 15.8339C8.33301 20.0006 17.4997 15.8339 17.4997 6.25057C17.4989 6.01845 17.4766 5.7869 17.433 5.5589C18.2835 4.72014 18.8837 3.66116 19.1663 2.50057Z" stroke="white" stroke-width="1.66667" stroke-linecap="round" stroke-linejoin="round"/>
</svg>
