<svg width="1175" height="1175" viewBox="0 0 1175 1175" fill="none" xmlns="http://www.w3.org/2000/svg">
<g clip-path="url(#clip0_98_1594)">
<rect width="1175" height="1175" fill="#28D664"/>
<g filter="url(#filter0_f_98_1594)">
<circle cx="1745.56" cy="1965.06" r="564.551" transform="rotate(-40.686 1745.56 1965.06)" fill="black"/>
</g>
<g filter="url(#filter1_f_98_1594)">
<ellipse cx="166.065" cy="300.286" rx="527.832" ry="482.907" transform="rotate(-40.686 166.065 300.286)" fill="#047A17" fill-opacity="0.9"/>
</g>
<g filter="url(#filter2_f_98_1594)">
<ellipse cx="981.256" cy="792.66" rx="527.832" ry="738.965" transform="rotate(-40.686 981.256 792.66)" fill="#FFF73A" fill-opacity="0.7"/>
</g>
<path fill-rule="evenodd" clip-rule="evenodd" d="M861.605 299.763L885.636 295.184C946.865 283.517 975.914 248.265 975.914 221.264C975.914 204.814 966.321 186.31 943.483 170.493C920.782 154.771 887.596 143.972 849.327 143.972C806.12 143.972 769.682 157.704 747.299 176.488L733.857 187.769L716.951 183.119C701.87 178.971 685.189 176.63 667.534 176.63C653.044 176.63 639.201 178.207 626.354 181.071L611.443 184.395L599.165 175.282C574.289 156.817 536.736 143.972 493.173 143.972C456.698 143.972 424.235 152.995 399.95 166.946L389.236 173.101L377.101 170.807C364.635 168.45 351.413 167.174 337.678 167.174C296.059 167.174 259.848 178.857 234.969 196.004C209.941 213.254 199.085 233.69 199.085 252.2C199.085 282.579 231.534 320.782 297.688 333.486L321.227 338.006L364.411 647.467H819.413L861.605 299.763ZM849.068 681.036H335.288L291.39 366.456C218.837 352.524 165.604 306.647 165.604 252.2C165.604 186.702 242.644 133.604 337.678 133.604C353.474 133.604 368.774 135.071 383.305 137.819C413.109 120.697 451.403 110.402 493.173 110.402C542.886 110.402 587.674 124.984 619.087 148.301C634.352 144.898 650.633 143.06 667.534 143.06C688.118 143.06 707.781 145.786 725.81 150.746C755.169 126.107 799.599 110.402 849.327 110.402C937.73 110.402 1009.4 160.037 1009.4 221.264C1009.4 272.284 959.632 315.255 891.887 328.163L849.068 681.036ZM843.145 961.703C842.886 959.068 842.6 956.23 842.289 953.201C840.404 934.882 837.651 910.259 834.485 883.105C834.031 879.213 833.569 875.272 833.1 871.292C832.542 873.582 831.797 876.134 830.772 878.734C829.566 881.796 826.814 888.004 820.982 893.5C815.788 898.394 808.448 903.085 802.853 906.5C796.413 910.432 788.834 914.711 781.192 918.87C765.87 927.208 749.183 935.668 738.438 940.943L712.784 953.535L696.34 930.119C696.356 930.143 696.342 930.127 696.298 930.075C695.986 929.71 694.166 927.579 690.833 925.143C687.249 922.522 683.048 920.385 678.589 919.396C676.218 918.871 668.073 917.874 653.993 916.916C645.475 916.336 635.618 915.819 625.03 915.401C623.997 916.355 622.904 917.285 621.747 918.187C611.152 926.443 598.496 929.727 585.817 929.727C572.768 929.727 559.199 926.611 547.997 917.479C546.855 916.548 545.782 915.591 544.773 914.612C535.636 914.848 527.295 915.224 520.156 915.75C514.28 916.183 509.629 916.69 506.226 917.22C504.196 917.537 503.124 917.787 502.763 917.871C487.933 924.288 474.697 933.665 470.833 936.82L457.379 947.808L440.668 943.121C428.691 939.761 410.444 933.46 393.542 925.015C385.094 920.795 376.075 915.591 368.119 909.373C360.665 903.548 351.251 894.622 345.975 882.121C342.815 874.633 340.955 864.947 339.724 855.868C337.812 865.965 335.982 875.944 334.279 885.633C329.455 913.073 325.774 937.483 324.058 955.434C323.62 960.019 323.336 963.919 323.181 967.161C327.923 969.465 333.975 972.177 341.239 975.186C359.271 982.655 383.489 991.428 411.006 999.797C466.605 1016.71 532.597 1031.03 586.828 1031.03C639.847 1031.03 708.178 1012.27 765.719 992.012C793.963 982.068 818.658 972.109 836.28 964.639C838.708 963.61 840.999 962.629 843.145 961.703ZM368.027 750.973C368.389 795.919 370.438 853.944 376.809 869.038C384.972 888.377 428.796 904.932 449.689 910.792C455.519 906.031 471.844 894.53 490.501 886.619C499.906 882.631 529.46 880.966 563.007 880.759C564.737 888.692 569.972 896.157 585.817 896.157C599.682 896.157 605.589 889.19 607.979 881.253C643.361 882.195 675.404 884.31 685.818 886.619C705.641 891.014 719.343 904.566 723.715 910.792C744.607 900.537 788.724 877.828 798.052 869.038C805.483 862.036 808.005 802.64 804.943 753.882C804.161 741.425 805.734 726.944 804.943 717.403H847.61C859.271 803.842 879.415 973.984 878.249 982.774C878.249 982.774 704.893 1064.6 586.828 1064.6C468.764 1064.6 308.302 1003.09 292.269 987.709C279.442 975.402 315.105 802.377 334.539 717.403H368.064C367.957 726.729 367.925 738.334 368.027 750.973ZM844.816 981.721C844.824 981.972 844.823 982.08 844.821 982.068C844.819 982.057 844.815 981.934 844.816 981.721Z" fill="#FAFAFA"/>
</g>
<defs>
<filter id="filter0_f_98_1594" x="836.756" y="1056.26" width="1817.6" height="1817.6" filterUnits="userSpaceOnUse" color-interpolation-filters="sRGB">
<feFlood flood-opacity="0" result="BackgroundImageFix"/>
<feBlend mode="normal" in="SourceGraphic" in2="BackgroundImageFix" result="shape"/>
<feGaussianBlur stdDeviation="172.119" result="effect1_foregroundBlur_98_1594"/>
</filter>
<filter id="filter1_f_98_1594" x="-687.419" y="-546.444" width="1706.97" height="1693.46" filterUnits="userSpaceOnUse" color-interpolation-filters="sRGB">
<feFlood flood-opacity="0" result="BackgroundImageFix"/>
<feBlend mode="normal" in="SourceGraphic" in2="BackgroundImageFix" result="shape"/>
<feGaussianBlur stdDeviation="172.119" result="effect1_foregroundBlur_98_1594"/>
</filter>
<filter id="filter2_f_98_1594" x="10.6826" y="-209.242" width="1941.15" height="2003.81" filterUnits="userSpaceOnUse" color-interpolation-filters="sRGB">
<feFlood flood-opacity="0" result="BackgroundImageFix"/>
<feBlend mode="normal" in="SourceGraphic" in2="BackgroundImageFix" result="shape"/>
<feGaussianBlur stdDeviation="172.119" result="effect1_foregroundBlur_98_1594"/>
</filter>
<clipPath id="clip0_98_1594">
<rect width="1175" height="1175" rx="255" fill="white"/>
</clipPath>
</defs>
</svg>
